<?xml version="1.0" standalone="no"?>
<!DOCTYPE svg PUBLIC "-//W3C//DTD SVG 1.1//EN" "http://www.w3.org/Graphics/SVG/1.1/DTD/svg11.dtd" >
<svg xmlns="http://www.w3.org/2000/svg">
<metadata>Generated by IcoMoon</metadata>
<defs>
<font id="icomoon" horiz-adv-x="1024">
<font-face units-per-em="1024" ascent="960" descent="-64" />
<missing-glyph horiz-adv-x="1024" />
<glyph unicode="&#x20;" horiz-adv-x="512" d="" />
<glyph unicode="&#xe900;" glyph-name="Device" horiz-adv-x="877" d="M617.314 457.435l-76.365 408.158c-7.153 35.7-38.209 62.234-75.478 62.321h-53.552c-37.278-0.087-68.335-26.62-75.405-61.828l-0.083-0.493-76.365-408.158c-126.336-10.822-224.783-116.041-224.783-244.254 0-135.363 109.734-245.097 245.097-245.097 0.11 0 0.22 0 0.33 0h315.976c0.074 0 0.161 0 0.249 0 135.365 0 245.1 109.735 245.1 245.1 0 128.191-98.413 233.397-223.808 244.188l-0.913 0.063zM723.523 86.581c-32.087-32.522-76.649-52.668-125.916-52.668-0.324 0-0.647 0.001-0.971 0.003h-315.943c-0.027 0-0.059 0-0.091 0-98.773 0-178.843 80.071-178.843 178.843 0 49.464 20.081 94.237 52.534 126.613l0.003 0.003c33.711 32.862 79.833 53.131 130.689 53.131 1.115 0 2.228-0.010 3.338-0.029l-0.167 0.002h8.339c0.055-0.001 0.121-0.001 0.187-0.001 10.764 0 19.734 7.677 21.734 17.855l0.023 0.14 82.946 442.391c0.797 5.192 5.194 9.135 10.527 9.216h53.551c5.341-0.081 9.738-4.024 10.526-9.156l0.008-0.060 82.948-442.391c2.022-10.317 10.992-17.995 21.756-17.995 0.066 0 0.132 0 0.199 0.001h8.329c0.944 0.017 2.058 0.027 3.173 0.027 50.855 0 96.976-20.269 130.724-53.17l-0.039 0.038c32.79-32.224 53.11-77.044 53.11-126.611 0-49.352-20.144-93.998-52.659-126.166l-0.016-0.016z" />
<glyph unicode="&#xe901;" glyph-name="Tank" horiz-adv-x="1304" d="M889.381 16.249h-475.23c-197.872 0.221-358.193 160.678-358.193 358.58s160.321 358.359 358.172 358.58h475.251c197.872-0.221 358.193-160.678 358.193-358.58s-160.321-358.359-358.172-358.58h-0.021zM414.151 670.59c-163.193-0.2-295.409-132.54-295.409-295.761s132.216-295.561 295.39-295.761h475.25c163.193 0.2 295.409 132.54 295.409 295.761s-132.216 295.561-295.39 295.761h-0.019zM393.794 879.751h173.713c25.732 0 46.593-20.86 46.593-46.593s-20.86-46.593-46.593-46.593h-173.713c-25.732 0-46.593 20.86-46.593 46.593s20.86 46.593 46.593 46.593z" />
<glyph unicode="&#xe902;" glyph-name="Cloud---Cross" d="M245.333 490.667c0 147.276 119.391 266.667 266.667 266.667 125.363 0 230.592-86.537 259.068-203.174 2.483-10.175 9.792-18.49 19.563-22.264 67.934-26.231 116.036-92.151 116.036-169.229 0-100.147-81.186-181.333-181.333-181.333h-469.333c-76.584 0-138.667 62.084-138.667 138.667 0 64.585 44.18 118.929 104.015 134.31 14.348 3.686 24.288 16.742 24.028 31.556-0.028 1.596-0.042 3.196-0.042 4.8zM512 821.333c-176.589 0-320.847-138.424-330.186-312.683-75.219-29.606-128.48-102.878-128.48-188.651 0-111.932 90.737-202.667 202.667-202.667h469.333c135.492 0 245.333 109.841 245.333 245.333 0 98.5-58.035 183.374-141.683 222.419-40.64 136.605-167.138 236.248-316.983 236.248zM449.293 513.293c-12.497 12.497-32.757 12.497-45.254 0s-12.497-32.755 0-45.252l62.704-62.707-62.704-62.707c-12.497-12.497-12.497-32.755 0-45.252s32.756-12.497 45.254 0l62.707 62.703 62.707-62.703c12.497-12.497 32.755-12.497 45.252 0s12.497 32.755 0 45.252l-62.703 62.707 62.703 62.707c12.497 12.497 12.497 32.755 0 45.252s-32.755 12.497-45.252 0l-62.707-62.703-62.707 62.703z" />
<glyph unicode="&#xe903;" glyph-name="Cloud---Download" d="M245.333 576c0 147.276 119.391 266.667 266.667 266.667 125.363 0 230.592-86.537 259.068-203.174 2.483-10.175 9.792-18.49 19.563-22.262 67.934-26.233 116.036-92.154 116.036-169.231 0-59.307-28.437-111.957-72.55-145.097-14.131-10.615-16.981-30.673-6.37-44.804 10.615-14.131 30.673-16.981 44.804-6.366 59.52 44.702 98.116 115.981 98.116 196.267 0 98.5-58.035 183.374-141.683 222.419-40.64 136.605-167.138 236.248-316.983 236.248-176.589 0-320.847-138.424-330.186-312.684-75.219-29.606-128.48-102.876-128.48-188.649 0-75.055 40.816-140.54 101.31-175.535 15.298-8.849 34.873-3.622 43.722 11.678 8.849 15.296 3.622 34.871-11.676 43.721-41.531 24.026-69.356 68.851-69.356 120.137 0 64.585 44.18 118.929 104.015 134.31 14.348 3.689 24.288 16.743 24.028 31.556-0.028 1.597-0.042 3.197-0.042 4.801zM544 448c0 17.673-14.327 32-32 32s-32-14.327-32-32v-306.743l-94.706 94.703c-12.497 12.497-32.758 12.497-45.255 0s-12.497-32.755 0-45.252l149.335-149.333c12.497-12.497 32.755-12.497 45.252 0l149.333 149.333c12.497 12.497 12.497 32.755 0 45.252s-32.755 12.497-45.252 0l-94.707-94.703v306.743z" />
<glyph unicode="&#xe904;" glyph-name="Cloud---Drizzle" d="M512 842.667c-147.276 0-266.667-119.391-266.667-266.667 0-1.604 0.014-3.204 0.042-4.801 0.261-14.813-9.679-27.867-24.028-31.556-59.834-15.381-104.015-69.725-104.015-134.31 0-51.285 27.825-96.111 69.356-120.137 15.298-8.849 20.526-28.425 11.676-43.721-8.849-15.3-28.425-20.527-43.722-11.678-60.494 34.995-101.31 100.48-101.31 175.535 0 85.773 53.262 159.043 128.48 188.649 9.339 174.26 153.597 312.684 330.186 312.684 149.845 0 276.343-99.643 316.983-236.248 83.648-39.045 141.683-123.919 141.683-222.419 0-80.286-38.596-151.565-98.116-196.267-14.131-10.615-34.189-7.765-44.804 6.366-10.611 14.131-7.761 34.189 6.37 44.804 44.113 33.139 72.55 85.79 72.55 145.097 0 77.077-48.102 142.998-116.036 169.231-9.771 3.773-17.079 12.087-19.563 22.262-28.476 116.637-133.705 203.174-259.068 203.174zM384 437.333c17.673 0 32-14.327 32-32v-85.333c0-17.673-14.327-32-32-32s-32 14.327-32 32v85.333c0 17.673 14.327 32 32 32zM416 192c0 17.673-14.327 32-32 32s-32-14.327-32-32v-85.333c0-17.673 14.327-32 32-32s32 14.327 32 32v85.333zM640 437.333c17.673 0 32-14.327 32-32v-85.333c0-17.673-14.327-32-32-32s-32 14.327-32 32v85.333c0 17.673 14.327 32 32 32zM672 192c0 17.673-14.327 32-32 32s-32-14.327-32-32v-85.333c0-17.673 14.327-32 32-32s32 14.327 32 32v85.333zM512 394.667c17.673 0 32-14.327 32-32v-85.333c0-17.673-14.327-32-32-32s-32 14.327-32 32v85.333c0 17.673 14.327 32 32 32zM544 149.333c0 17.673-14.327 32-32 32s-32-14.327-32-32v-85.333c0-17.673 14.327-32 32-32s32 14.327 32 32v85.333z" />
<glyph unicode="&#xe905;" glyph-name="Cloud---Lightning" d="M245.333 576c0 147.276 119.391 266.667 266.667 266.667 125.363 0 230.592-86.537 259.068-203.174 2.483-10.175 9.792-18.49 19.563-22.262 67.934-26.233 116.036-92.154 116.036-169.231 0-59.307-28.437-111.957-72.55-145.097-14.131-10.615-16.981-30.673-6.37-44.804 10.615-14.131 30.673-16.981 44.804-6.366 59.52 44.702 98.116 115.981 98.116 196.267 0 98.5-58.035 183.374-141.683 222.419-40.64 136.605-167.138 236.248-316.983 236.248-176.589 0-320.847-138.424-330.186-312.684-75.219-29.606-128.48-102.876-128.48-188.649 0-75.055 40.816-140.54 101.31-175.535 15.298-8.849 34.873-3.622 43.722 11.678 8.849 15.296 3.622 34.871-11.676 43.721-41.531 24.026-69.356 68.851-69.356 120.137 0 64.585 44.18 118.929 104.015 134.31 14.348 3.689 24.288 16.743 24.028 31.556-0.028 1.597-0.042 3.197-0.042 4.801zM461.257 266.667l116.036 116.041c12.497 12.497 12.497 32.755 0 45.252s-32.755 12.497-45.252 0l-170.668-170.667c-9.152-9.152-11.89-22.916-6.937-34.871 4.953-11.959 16.621-19.755 29.564-19.755h178.743l-116.036-116.041c-12.497-12.497-12.497-32.755 0-45.252s32.755-12.497 45.252 0l170.667 170.667c9.152 9.152 11.891 22.916 6.938 34.871-4.954 11.959-16.623 19.755-29.564 19.755h-178.743z" />
<glyph unicode="&#xe906;" glyph-name="Cloud---Snow" d="M512 842.667c-147.276 0-266.667-119.391-266.667-266.667 0-1.604 0.014-3.204 0.042-4.801 0.261-14.813-9.679-27.867-24.028-31.556-59.834-15.381-104.015-69.725-104.015-134.31 0-51.285 27.825-96.111 69.356-120.137 15.298-8.849 20.526-28.425 11.676-43.721-8.849-15.3-28.425-20.527-43.722-11.678-60.494 34.995-101.31 100.48-101.31 175.535 0 85.773 53.262 159.043 128.48 188.649 9.339 174.26 153.597 312.684 330.186 312.684 149.845 0 276.343-99.643 316.983-236.248 83.648-39.045 141.683-123.919 141.683-222.419 0-80.286-38.596-151.565-98.116-196.267-14.131-10.615-34.189-7.765-44.804 6.366-10.611 14.131-7.761 34.189 6.37 44.804 44.113 33.139 72.55 85.79 72.55 145.097 0 77.077-48.102 142.998-116.036 169.231-9.771 3.773-17.079 12.087-19.563 22.262-28.476 116.637-133.705 203.174-259.068 203.174zM426.667 362.667c0-23.565-19.102-42.667-42.667-42.667s-42.667 19.102-42.667 42.667c0 23.565 19.103 42.667 42.667 42.667s42.667-19.102 42.667-42.667zM384 106.667c23.564 0 42.667 19.102 42.667 42.667s-19.102 42.667-42.667 42.667c-23.564 0-42.667-19.102-42.667-42.667s19.103-42.667 42.667-42.667zM682.667 362.667c0-23.565-19.102-42.667-42.667-42.667s-42.667 19.102-42.667 42.667c0 23.565 19.102 42.667 42.667 42.667s42.667-19.102 42.667-42.667zM640 106.667c23.565 0 42.667 19.102 42.667 42.667s-19.102 42.667-42.667 42.667c-23.565 0-42.667-19.102-42.667-42.667s19.102-42.667 42.667-42.667zM554.667 277.333c0-23.565-19.102-42.667-42.667-42.667s-42.667 19.102-42.667 42.667c0 23.565 19.102 42.667 42.667 42.667s42.667-19.102 42.667-42.667zM512 21.333c23.565 0 42.667 19.102 42.667 42.667s-19.102 42.667-42.667 42.667c-23.565 0-42.667-19.102-42.667-42.667s19.102-42.667 42.667-42.667z" />
<glyph unicode="&#xe907;" glyph-name="Cloud---Upload" d="M245.333 576c0 147.276 119.391 266.667 266.667 266.667 125.363 0 230.592-86.537 259.068-203.174 2.483-10.175 9.792-18.49 19.563-22.262 67.934-26.233 116.036-92.154 116.036-169.231 0-59.307-28.437-111.957-72.55-145.097-14.131-10.615-16.981-30.673-6.37-44.804 10.615-14.131 30.673-16.981 44.804-6.366 59.52 44.702 98.116 115.981 98.116 196.267 0 98.5-58.035 183.374-141.683 222.419-40.64 136.605-167.138 236.248-316.983 236.248-176.589 0-320.847-138.424-330.186-312.684-75.219-29.606-128.48-102.876-128.48-188.649 0-75.055 40.816-140.54 101.31-175.535 15.298-8.849 34.873-3.622 43.722 11.678 8.849 15.296 3.622 34.871-11.676 43.721-41.531 24.026-69.356 68.851-69.356 120.137 0 64.585 44.18 118.929 104.015 134.31 14.348 3.689 24.288 16.743 24.028 31.556-0.028 1.597-0.042 3.197-0.042 4.801zM683.959 321.293l-149.333 149.333c-12.497 12.497-32.755 12.497-45.252 0l-149.335-149.333c-12.497-12.497-12.497-32.755 0-45.252s32.758-12.497 45.255 0l94.706 94.703v-306.743c0-17.673 14.327-32 32-32s32 14.327 32 32v306.743l94.707-94.703c12.497-12.497 32.755-12.497 45.252 0s12.497 32.755 0 45.252z" />
<glyph unicode="&#xe908;" glyph-name="Cloud" d="M245.333 490.667c0 147.276 119.391 266.667 266.667 266.667 125.363 0 230.592-86.537 259.068-203.174 2.483-10.175 9.792-18.49 19.563-22.264 67.934-26.231 116.036-92.151 116.036-169.229 0-100.147-81.186-181.333-181.333-181.333h-469.333c-76.584 0-138.667 62.084-138.667 138.667 0 64.585 44.18 118.929 104.015 134.31 14.348 3.686 24.288 16.742 24.028 31.556-0.028 1.596-0.042 3.196-0.042 4.8zM512 821.333c-176.589 0-320.847-138.424-330.186-312.683-75.219-29.606-128.48-102.878-128.48-188.651 0-111.932 90.737-202.667 202.667-202.667h469.333c135.492 0 245.333 109.841 245.333 245.333 0 98.5-58.035 183.374-141.683 222.419-40.64 136.605-167.138 236.248-316.983 236.248zM491.959 297.374l170.667 170.667c12.497 12.497 12.497 32.755 0 45.252s-32.755 12.497-45.252 0l-148.041-148.036-41.374 41.37c-12.495 12.497-32.757 12.497-45.254 0s-12.497-32.755 0-45.252l64.001-64c5.999-6.003 14.14-9.374 22.626-9.374s16.627 3.371 22.626 9.374z" />
<glyph unicode="&#xe909;" glyph-name="Cloud-1" d="M512 757.333c-147.276 0-266.667-119.391-266.667-266.667 0-1.604 0.014-3.204 0.042-4.8 0.261-14.814-9.679-27.87-24.028-31.556-59.834-15.381-104.015-69.726-104.015-134.31 0-76.582 62.083-138.667 138.667-138.667h469.333c100.147 0 181.333 81.186 181.333 181.333 0 77.077-48.102 142.997-116.036 169.229-9.771 3.775-17.079 12.090-19.563 22.264-28.476 116.637-133.705 203.174-259.068 203.174zM181.814 508.651c9.339 174.258 153.597 312.683 330.186 312.683 149.845 0 276.343-99.643 316.983-236.248 83.648-39.045 141.683-123.919 141.683-222.419 0-135.492-109.841-245.333-245.333-245.333h-469.333c-111.93 0-202.667 90.735-202.667 202.667 0 85.773 53.262 159.044 128.48 188.651z" />
<glyph unicode="&#xe90a;" glyph-name="Moon" d="M483.26 886.684c6.583-11.285 5.649-25.441-2.368-35.759-40.683-52.371-64.892-118.109-64.892-189.592 0-170.841 138.492-309.332 309.333-309.332 47.027 0 91.516 10.47 131.345 29.18 11.836 5.559 25.86 3.358 35.426-5.555 9.562-8.917 12.74-22.754 8.026-34.948-60.16-155.58-211.209-266.010-388.13-266.010-229.751 0-416 186.249-416 416 0 209.029 154.139 382.001 354.961 411.549 12.928 1.902 25.715-4.246 32.299-15.532zM387.278 819.94c-132.837-50.342-227.278-178.8-227.278-329.273 0-194.406 157.596-352 352-352 122.692 0 230.775 62.78 293.79 158.029-25.929-5.696-52.851-8.695-80.457-8.695-206.187 0-373.333 167.147-373.333 373.332 0 56.687 12.651 110.458 35.278 158.607z" />
<glyph unicode="&#xe90b;" glyph-name="Sun" d="M512 906.667c17.673 0 32-14.327 32-32v-128c0-17.673-14.327-32-32-32s-32 14.327-32 32v128c0 17.673 14.327 32 32 32zM512 181.333c17.673 0 32-14.327 32-32v-128c0-17.673-14.327-32-32-32s-32 14.327-32 32v128c0 17.673 14.327 32 32 32zM512 586.667c-76.582 0-138.667-62.084-138.667-138.667s62.084-138.667 138.667-138.667c76.582 0 138.667 62.084 138.667 138.667s-62.084 138.667-138.667 138.667zM309.333 448c0 111.93 90.737 202.667 202.667 202.667 111.932 0 202.667-90.737 202.667-202.667 0-111.932-90.735-202.667-202.667-202.667-111.93 0-202.667 90.735-202.667 202.667zM85.333 480c-17.673 0-32-14.327-32-32s14.327-32 32-32h128c17.673 0 32 14.327 32 32s-14.327 32-32 32h-128zM810.667 480c-17.673 0-32-14.327-32-32s14.327-32 32-32h128c17.673 0 32 14.327 32 32s-14.327 32-32 32h-128zM187.674 772.326c12.497 12.497 32.758 12.497 45.255 0l90.51-90.51c12.497-12.497 12.497-32.758 0-45.255s-32.758-12.497-45.255 0l-90.51 90.51c-12.497 12.497-12.497 32.758 0 45.255zM700.561 259.439c12.497 12.497 32.759 12.497 45.257 0l90.509-90.513c12.497-12.497 12.497-32.755 0-45.252s-32.755-12.497-45.252 0l-90.513 90.509c-12.497 12.497-12.497 32.759 0 45.257zM187.674 168.93c-12.497-12.497-12.497-32.759 0-45.257s32.758-12.497 45.255 0l90.51 90.509c12.497 12.497 12.497 32.759 0 45.257s-32.758 12.497-45.255 0l-90.51-90.509zM700.561 681.818c-12.497-12.497-12.497-32.758 0-45.255s32.759-12.497 45.257 0l90.509 90.51c12.497 12.497 12.497 32.758 0 45.255s-32.755 12.497-45.252 0l-90.513-90.51z" />
<glyph unicode="&#xe90c;" glyph-name="Sunrise" d="M489.374 897.294c12.497 12.497 32.755 12.497 45.252 0l128-128c12.497-12.497 12.497-32.758 0-45.255s-32.755-12.497-45.252 0l-73.374 73.373v-221.412c0-17.673-14.327-32-32-32s-32 14.327-32 32v221.412l-73.373-73.373c-12.497-12.497-32.758-12.497-45.255 0s-12.497 32.758 0 45.255l128.001 128zM377.044 266.667c14.446 61.158 69.386 106.667 134.956 106.667s120.512-45.508 134.955-106.667h-269.911zM311.846 266.667h-226.512c-17.673 0-32-14.327-32-32s14.327-32 32-32h853.333c17.673 0 32 14.327 32 32s-14.327 32-32 32h-226.513c-15.343 96.725-99.11 170.667-200.154 170.667-101.041 0-184.812-73.941-200.154-170.667zM256 96c-17.673 0-32-14.327-32-32s14.327-32 32-32h512c17.673 0 32 14.327 32 32s-14.327 32-32 32h-512zM187.674 558.992c12.497 12.497 32.758 12.497 45.255 0l90.51-90.508c12.497-12.497 12.497-32.759 0-45.257s-32.758-12.497-45.255 0l-90.51 90.509c-12.497 12.497-12.497 32.759 0 45.255zM700.561 468.484c-12.497-12.497-12.497-32.759 0-45.257s32.759-12.497 45.257 0l90.509 90.513c12.497 12.497 12.497 32.756 0 45.253s-32.755 12.497-45.252 0l-90.513-90.51z" />
<glyph unicode="&#xe90d;" glyph-name="Sunset" d="M512 906.667c17.673 0 32-14.327 32-32v-221.412l73.374 73.373c12.497 12.497 32.755 12.497 45.252 0s12.497-32.758 0-45.255l-128-128c-12.497-12.497-32.755-12.497-45.252 0l-128.001 128c-12.497 12.497-12.497 32.758 0 45.255s32.758 12.497 45.255 0l73.373-73.373v221.412c0 17.673 14.327 32 32 32zM377.044 266.667c14.446 61.158 69.386 106.667 134.956 106.667s120.512-45.508 134.955-106.667h-269.911zM311.846 266.667h-226.512c-17.673 0-32-14.327-32-32s14.327-32 32-32h853.333c17.673 0 32 14.327 32 32s-14.327 32-32 32h-226.513c-15.343 96.725-99.11 170.667-200.154 170.667-101.041 0-184.812-73.941-200.154-170.667zM256 96c-17.673 0-32-14.327-32-32s14.327-32 32-32h512c17.673 0 32 14.327 32 32s-14.327 32-32 32h-512zM187.674 558.992c12.497 12.497 32.758 12.497 45.255 0l90.51-90.508c12.497-12.497 12.497-32.759 0-45.257s-32.758-12.497-45.255 0l-90.51 90.509c-12.497 12.497-12.497 32.759 0 45.255zM700.561 468.484c-12.497-12.497-12.497-32.759 0-45.257s32.759-12.497 45.257 0l90.509 90.513c12.497 12.497 12.497 32.756 0 45.253s-32.755 12.497-45.252 0l-90.513-90.51z" />
<glyph unicode="&#xe90e;" glyph-name="User---Alert" d="M288 661.333c0 76.584 62.083 138.667 138.667 138.667 76.582 0 138.667-62.083 138.667-138.667s-62.084-138.667-138.667-138.667c-76.584 0-138.667 62.083-138.667 138.667zM426.667 864c-111.93 0-202.667-90.737-202.667-202.667s90.737-202.667 202.667-202.667c111.932 0 202.667 90.737 202.667 202.667s-90.735 202.667-202.667 202.667zM885.333 746.667c0 17.673-14.327 32-32 32s-32-14.327-32-32v-213.333c0-17.673 14.327-32 32-32s32 14.327 32 32v213.333zM298.667 288c-76.584 0-138.667-62.084-138.667-138.667 0-29.457 23.878-53.333 53.333-53.333h426.667c29.457 0 53.333 23.876 53.333 53.333 0 76.582-62.084 138.667-138.667 138.667h-256zM96 149.333c0 111.932 90.737 202.667 202.667 202.667h256c111.932 0 202.667-90.735 202.667-202.667 0-64.802-52.531-117.333-117.333-117.333h-426.667c-64.801 0-117.333 52.531-117.333 117.333zM853.333 362.667c23.565 0 42.667 19.102 42.667 42.667s-19.102 42.667-42.667 42.667c-23.565 0-42.667-19.102-42.667-42.667s19.102-42.667 42.667-42.667z" />
<glyph unicode="&#xe90f;" glyph-name="User---Arrow-BL" d="M384 800c-76.584 0-138.667-62.083-138.667-138.667s62.083-138.667 138.667-138.667c76.582 0 138.667 62.083 138.667 138.667s-62.084 138.667-138.667 138.667zM181.333 661.333c0 111.93 90.737 202.667 202.667 202.667 111.932 0 202.667-90.737 202.667-202.667s-90.735-202.667-202.667-202.667c-111.93 0-202.667 90.737-202.667 202.667zM256 288c-76.584 0-138.667-62.084-138.667-138.667 0-29.457 23.878-53.333 53.333-53.333h426.667c29.457 0 53.333 23.876 53.333 53.333 0 76.582-62.084 138.667-138.667 138.667h-256zM53.333 149.333c0 111.932 90.737 202.667 202.667 202.667h256c111.932 0 202.667-90.735 202.667-202.667 0-64.802-52.531-117.333-117.333-117.333h-426.667c-64.801 0-117.333 52.531-117.333 117.333zM802.59 480l158.703 158.706c12.497 12.497 12.497 32.758 0 45.255s-32.755 12.497-45.252 0l-158.707-158.704v93.41c0 17.673-14.327 32-32 32s-32-14.327-32-32v-170.667c0-17.673 14.327-32 32-32h170.667c17.673 0 32 14.327 32 32s-14.327 32-32 32h-93.41z" />
<glyph unicode="&#xe910;" glyph-name="User---Arrow-Bottom" d="M384 800c-76.584 0-138.667-62.083-138.667-138.667s62.083-138.667 138.667-138.667c76.582 0 138.667 62.083 138.667 138.667s-62.084 138.667-138.667 138.667zM181.333 661.333c0 111.93 90.737 202.667 202.667 202.667 111.932 0 202.667-90.737 202.667-202.667s-90.735-202.667-202.667-202.667c-111.93 0-202.667 90.737-202.667 202.667zM256 288c-76.584 0-138.667-62.084-138.667-138.667 0-29.457 23.878-53.333 53.333-53.333h426.667c29.457 0 53.333 23.876 53.333 53.333 0 76.582-62.084 138.667-138.667 138.667h-256zM53.333 149.333c0 111.932 90.737 202.667 202.667 202.667h256c111.932 0 202.667-90.735 202.667-202.667 0-64.802-52.531-117.333-117.333-117.333h-426.667c-64.801 0-117.333 52.531-117.333 117.333zM885.333 661.333c0 17.673-14.327 32-32 32s-32-14.327-32-32v-178.743l-73.374 73.371c-12.497 12.497-32.755 12.497-45.252 0s-12.497-32.756 0-45.254l128-128c12.497-12.497 32.755-12.497 45.252 0l128 128c12.497 12.497 12.497 32.757 0 45.254s-32.755 12.497-45.252 0l-73.374-73.371v178.743z" />
<glyph unicode="&#xe911;" glyph-name="User---Arrow-Right" d="M384 800c-76.584 0-138.667-62.083-138.667-138.667s62.083-138.667 138.667-138.667c76.582 0 138.667 62.083 138.667 138.667s-62.084 138.667-138.667 138.667zM181.333 661.333c0 111.93 90.737 202.667 202.667 202.667 111.932 0 202.667-90.737 202.667-202.667s-90.735-202.667-202.667-202.667c-111.93 0-202.667 90.737-202.667 202.667zM256 288c-76.584 0-138.667-62.084-138.667-138.667 0-29.457 23.878-53.333 53.333-53.333h426.667c29.457 0 53.333 23.876 53.333 53.333 0 76.582-62.084 138.667-138.667 138.667h-256zM53.333 149.333c0 111.932 90.737 202.667 202.667 202.667h256c111.932 0 202.667-90.735 202.667-202.667 0-64.802-52.531-117.333-117.333-117.333h-426.667c-64.801 0-117.333 52.531-117.333 117.333zM875.959 683.961c-12.497 12.497-32.755 12.497-45.252 0s-12.497-32.758 0-45.255l73.37-73.373h-178.743c-17.673 0-32-14.327-32-32s14.327-32 32-32h178.743l-73.37-73.374c-12.497-12.497-12.497-32.755 0-45.252s32.755-12.497 45.252 0l128 128c12.497 12.497 12.497 32.757 0 45.254l-128 128z" />
<glyph unicode="&#xe912;" glyph-name="User---Arrow-Top" d="M384 800c-76.584 0-138.667-62.083-138.667-138.667s62.083-138.667 138.667-138.667c76.582 0 138.667 62.083 138.667 138.667s-62.084 138.667-138.667 138.667zM181.333 661.333c0 111.93 90.737 202.667 202.667 202.667 111.932 0 202.667-90.737 202.667-202.667s-90.735-202.667-202.667-202.667c-111.93 0-202.667 90.737-202.667 202.667zM256 288c-76.584 0-138.667-62.084-138.667-138.667 0-29.457 23.878-53.333 53.333-53.333h426.667c29.457 0 53.333 23.876 53.333 53.333 0 76.582-62.084 138.667-138.667 138.667h-256zM53.333 149.333c0 111.932 90.737 202.667 202.667 202.667h256c111.932 0 202.667-90.735 202.667-202.667 0-64.802-52.531-117.333-117.333-117.333h-426.667c-64.801 0-117.333 52.531-117.333 117.333zM875.959 683.961c-12.497 12.497-32.755 12.497-45.252 0l-128-128c-12.497-12.497-12.497-32.756 0-45.254s32.755-12.497 45.252 0l73.374 73.371v-178.745c0-17.673 14.327-32 32-32s32 14.327 32 32v178.745l73.374-73.371c12.497-12.497 32.755-12.497 45.252 0s12.497 32.757 0 45.254l-128 128z" />
<glyph unicode="&#xe913;" glyph-name="User---Arrow-TR" d="M384 800c-76.584 0-138.667-62.083-138.667-138.667s62.083-138.667 138.667-138.667c76.582 0 138.667 62.083 138.667 138.667s-62.084 138.667-138.667 138.667zM181.333 661.333c0 111.93 90.737 202.667 202.667 202.667 111.932 0 202.667-90.737 202.667-202.667s-90.735-202.667-202.667-202.667c-111.93 0-202.667 90.737-202.667 202.667zM256 288c-76.584 0-138.667-62.084-138.667-138.667 0-29.457 23.878-53.333 53.333-53.333h426.667c29.457 0 53.333 23.876 53.333 53.333 0 76.582-62.084 138.667-138.667 138.667h-256zM53.333 149.333c0 111.932 90.737 202.667 202.667 202.667h256c111.932 0 202.667-90.735 202.667-202.667 0-64.802-52.531-117.333-117.333-117.333h-426.667c-64.801 0-117.333 52.531-117.333 117.333zM768 693.333c-17.673 0-32-14.327-32-32s14.327-32 32-32h93.41l-158.703-158.707c-12.497-12.497-12.497-32.755 0-45.252s32.755-12.497 45.252 0l158.707 158.705v-93.412c0-17.673 14.327-32 32-32s32 14.327 32 32v170.667c0 17.673-14.327 32-32 32h-170.667z" />
<glyph unicode="&#xe914;" glyph-name="User---Check" d="M384 800c-76.584 0-138.667-62.083-138.667-138.667s62.083-138.667 138.667-138.667c76.582 0 138.667 62.083 138.667 138.667s-62.084 138.667-138.667 138.667zM181.333 661.333c0 111.93 90.737 202.667 202.667 202.667 111.932 0 202.667-90.737 202.667-202.667s-90.735-202.667-202.667-202.667c-111.93 0-202.667 90.737-202.667 202.667zM256 288c-76.584 0-138.667-62.084-138.667-138.667 0-29.457 23.878-53.333 53.333-53.333h426.667c29.457 0 53.333 23.876 53.333 53.333 0 76.582-62.084 138.667-138.667 138.667h-256zM53.333 149.333c0 111.932 90.737 202.667 202.667 202.667h256c111.932 0 202.667-90.735 202.667-202.667 0-64.802-52.531-117.333-117.333-117.333h-426.667c-64.801 0-117.333 52.531-117.333 117.333zM1003.959 596.039c12.497 12.497 12.497 32.758 0 45.255s-32.755 12.497-45.252 0l-148.041-148.038-62.707 62.704c-12.497 12.497-32.755 12.497-45.252 0s-12.497-32.756 0-45.254l85.333-85.333c12.497-12.497 32.755-12.497 45.252 0l170.667 170.665z" />
<glyph unicode="&#xe915;" glyph-name="User---Circle" d="M512 842.667c-217.968 0-394.667-176.698-394.667-394.667 0-217.967 176.698-394.667 394.667-394.667 217.967 0 394.667 176.7 394.667 394.667 0 217.968-176.7 394.667-394.667 394.667zM53.333 448c0 253.315 205.352 458.667 458.667 458.667s458.667-205.352 458.667-458.667c0-253.316-205.35-458.667-458.667-458.667-253.315 0-458.667 205.35-458.667 458.667zM455.113 373.333c-45.166 0-81.779-36.612-81.779-81.779 0-13.743 11.143-24.887 24.889-24.887h227.557c13.743 0 24.887 11.145 24.887 24.887 0 45.167-36.612 81.779-81.779 81.779h-113.775zM309.333 291.554c0 80.512 65.267 145.779 145.779 145.779h113.775c80.512 0 145.779-65.267 145.779-145.779 0-49.092-39.795-88.887-88.887-88.887h-227.557c-49.092 0-88.889 39.795-88.889 88.887zM458.667 618.667c0 29.455 23.876 53.333 53.333 53.333s53.333-23.878 53.333-53.333c0-29.455-23.876-53.333-53.333-53.333s-53.333 23.878-53.333 53.333zM512 736c-64.802 0-117.333-52.532-117.333-117.333s52.531-117.333 117.333-117.333c64.802 0 117.333 52.532 117.333 117.333s-52.531 117.333-117.333 117.333z" />
<glyph unicode="&#xe916;" glyph-name="User---Cross" d="M384 800c-76.584 0-138.667-62.083-138.667-138.667s62.083-138.667 138.667-138.667c76.582 0 138.667 62.083 138.667 138.667s-62.084 138.667-138.667 138.667zM181.333 661.333c0 111.93 90.737 202.667 202.667 202.667 111.932 0 202.667-90.737 202.667-202.667s-90.735-202.667-202.667-202.667c-111.93 0-202.667 90.737-202.667 202.667zM256 288c-76.584 0-138.667-62.084-138.667-138.667 0-29.457 23.878-53.333 53.333-53.333h426.667c29.457 0 53.333 23.876 53.333 53.333 0 76.582-62.084 138.667-138.667 138.667h-256zM53.333 149.333c0 111.932 90.737 202.667 202.667 202.667h256c111.932 0 202.667-90.735 202.667-202.667 0-64.802-52.531-117.333-117.333-117.333h-426.667c-64.801 0-117.333 52.531-117.333 117.333zM790.626 683.961c-12.497 12.497-32.755 12.497-45.252 0s-12.497-32.758 0-45.255l84.036-84.039-84.036-84.041c-12.497-12.497-12.497-32.755 0-45.252s32.755-12.497 45.252 0l84.041 84.036 84.041-84.036c12.497-12.497 32.755-12.497 45.252 0s12.497 32.755 0 45.252l-84.036 84.041 84.036 84.039c12.497 12.497 12.497 32.758 0 45.255s-32.755 12.497-45.252 0l-84.041-84.039-84.041 84.039z" />
<glyph unicode="&#xe917;" glyph-name="User---Minus" d="M384 800c-76.584 0-138.667-62.083-138.667-138.667s62.083-138.667 138.667-138.667c76.582 0 138.667 62.083 138.667 138.667s-62.084 138.667-138.667 138.667zM181.333 661.333c0 111.93 90.737 202.667 202.667 202.667 111.932 0 202.667-90.737 202.667-202.667s-90.735-202.667-202.667-202.667c-111.93 0-202.667 90.737-202.667 202.667zM256 288c-76.584 0-138.667-62.084-138.667-138.667 0-29.457 23.878-53.333 53.333-53.333h426.667c29.457 0 53.333 23.876 53.333 53.333 0 76.582-62.084 138.667-138.667 138.667h-256zM53.333 149.333c0 111.932 90.737 202.667 202.667 202.667h256c111.932 0 202.667-90.735 202.667-202.667 0-64.802-52.531-117.333-117.333-117.333h-426.667c-64.801 0-117.333 52.531-117.333 117.333zM725.333 565.333c-17.673 0-32-14.327-32-32s14.327-32 32-32h256c17.673 0 32 14.327 32 32s-14.327 32-32 32h-256z" />
<glyph unicode="&#xe918;" glyph-name="User---Plus" d="M384 800c-76.584 0-138.667-62.083-138.667-138.667s62.083-138.667 138.667-138.667c76.582 0 138.667 62.083 138.667 138.667s-62.084 138.667-138.667 138.667zM181.333 661.333c0 111.93 90.737 202.667 202.667 202.667 111.932 0 202.667-90.737 202.667-202.667s-90.735-202.667-202.667-202.667c-111.93 0-202.667 90.737-202.667 202.667zM256 288c-76.584 0-138.667-62.084-138.667-138.667 0-29.457 23.878-53.333 53.333-53.333h426.667c29.457 0 53.333 23.876 53.333 53.333 0 76.582-62.084 138.667-138.667 138.667h-256zM53.333 149.333c0 111.932 90.737 202.667 202.667 202.667h256c111.932 0 202.667-90.735 202.667-202.667 0-64.802-52.531-117.333-117.333-117.333h-426.667c-64.801 0-117.333 52.531-117.333 117.333zM885.333 661.333c0 17.673-14.327 32-32 32s-32-14.327-32-32v-96h-96c-17.673 0-32-14.327-32-32s14.327-32 32-32h96v-96c0-17.673 14.327-32 32-32s32 14.327 32 32v96h96c17.673 0 32 14.327 32 32s-14.327 32-32 32h-96v96z" />
<glyph unicode="&#xe919;" glyph-name="User---Square" d="M510.387 906.667h3.23c78.387 0 139.396 0 188.143-4.418 49.523-4.489 89.523-13.738 124.907-34.167 43.78-25.277 80.137-61.634 105.417-105.415 20.429-35.385 29.679-75.384 34.167-124.906 4.416-48.748 4.416-109.756 4.416-188.143v-3.234c0-78.387 0-139.396-4.416-188.143-4.489-49.523-13.739-89.523-34.167-124.907-25.28-43.78-61.636-80.137-105.417-105.417-35.383-20.429-75.383-29.679-124.907-34.167-48.747-4.416-109.756-4.416-188.143-4.416h-3.234c-78.387 0-139.395 0-188.143 4.416-49.522 4.489-89.521 13.739-124.906 34.167-43.782 25.28-80.138 61.636-105.415 105.417-20.429 35.383-29.679 75.383-34.167 124.907-4.418 48.747-4.418 109.756-4.418 188.143v3.234c0 78.387 0 139.395 4.418 188.143 4.489 49.522 13.738 89.521 34.167 124.906 25.277 43.782 61.634 80.138 105.415 105.415 35.385 20.429 75.384 29.679 124.906 34.167 48.748 4.418 109.756 4.418 188.143 4.418h0.004zM328.017 838.51c-45.083-4.086-74.663-11.985-98.683-25.854-34.052-19.66-62.33-47.937-81.99-81.99-13.868-24.020-21.768-53.6-25.854-98.683-4.126-45.523-4.157-103.642-4.157-183.983s0.031-138.462 4.157-183.983c4.086-45.082 11.985-74.662 25.854-98.684 19.66-34.052 47.937-62.327 81.99-81.988 24.020-13.871 53.6-21.769 98.683-25.856 45.523-4.126 103.642-4.156 183.983-4.156s138.462 0.030 183.983 4.156c45.082 4.087 74.662 11.985 98.684 25.856 34.052 19.661 62.327 47.936 81.988 81.988 13.871 24.021 21.769 53.602 25.856 98.684 4.126 45.521 4.156 103.642 4.156 183.983s-0.030 138.461-4.156 183.983c-4.087 45.083-11.985 74.663-25.856 98.683-19.661 34.052-47.936 62.33-81.988 81.99-24.021 13.868-53.602 21.768-98.684 25.854-45.521 4.126-103.642 4.157-183.983 4.157s-138.461-0.031-183.983-4.157zM455.113 373.333c-45.166 0-81.779-36.612-81.779-81.779 0-13.743 11.143-24.887 24.889-24.887h227.557c13.743 0 24.887 11.145 24.887 24.887 0 45.167-36.612 81.779-81.779 81.779h-113.775zM309.333 291.554c0 80.512 65.267 145.779 145.779 145.779h113.775c80.512 0 145.779-65.267 145.779-145.779 0-49.092-39.795-88.887-88.887-88.887h-227.557c-49.092 0-88.889 39.795-88.889 88.887zM458.667 618.667c0 29.455 23.876 53.333 53.333 53.333s53.333-23.878 53.333-53.333c0-29.455-23.876-53.333-53.333-53.333s-53.333 23.878-53.333 53.333zM512 736c-64.802 0-117.333-52.532-117.333-117.333s52.531-117.333 117.333-117.333c64.802 0 117.333 52.532 117.333 117.333s-52.531 117.333-117.333 117.333z" />
<glyph unicode="&#xe91a;" glyph-name="User" d="M373.333 661.333c0 76.584 62.084 138.667 138.667 138.667s138.667-62.083 138.667-138.667c0-76.584-62.084-138.667-138.667-138.667s-138.667 62.083-138.667 138.667zM512 864c-111.93 0-202.667-90.737-202.667-202.667s90.737-202.667 202.667-202.667c111.932 0 202.667 90.737 202.667 202.667s-90.735 202.667-202.667 202.667zM245.333 149.333c0 76.582 62.083 138.667 138.667 138.667h256c76.582 0 138.667-62.084 138.667-138.667 0-29.457-23.876-53.333-53.333-53.333h-426.667c-29.455 0-53.333 23.876-53.333 53.333zM384 352c-111.93 0-202.667-90.735-202.667-202.667 0-64.802 52.532-117.333 117.333-117.333h426.667c64.802 0 117.333 52.531 117.333 117.333 0 111.932-90.735 202.667-202.667 202.667h-256z" />
<glyph unicode="&#xe91b;" glyph-name="Users" d="M202.667 661.333c0 76.584 62.083 138.667 138.667 138.667s138.667-62.083 138.667-138.667c0-76.584-62.083-138.667-138.667-138.667s-138.667 62.083-138.667 138.667zM341.333 864c-111.93 0-202.667-90.737-202.667-202.667s90.737-202.667 202.667-202.667c111.932 0 202.667 90.737 202.667 202.667s-90.735 202.667-202.667 202.667zM597.333 864c-17.673 0-32-14.327-32-32s14.327-32 32-32c76.582 0 138.667-62.083 138.667-138.667s-62.084-138.667-138.667-138.667c-17.673 0-32-14.327-32-32s14.327-32 32-32c111.932 0 202.667 90.737 202.667 202.667s-90.735 202.667-202.667 202.667zM256 288c-76.584 0-138.667-62.084-138.667-138.667 0-29.457 23.878-53.333 53.333-53.333h341.333c29.457 0 53.333 23.876 53.333 53.333 0 76.582-62.084 138.667-138.667 138.667h-170.667zM53.333 149.333c0 111.932 90.737 202.667 202.667 202.667h170.667c111.932 0 202.667-90.735 202.667-202.667 0-64.802-52.531-117.333-117.333-117.333h-341.333c-64.801 0-117.333 52.531-117.333 117.333zM682.667 352c-17.673 0-32-14.327-32-32s14.327-32 32-32h85.333c76.582 0 138.667-62.084 138.667-138.667 0-29.457-23.876-53.333-53.333-53.333h-170.667c-17.673 0-32-14.327-32-32s14.327-32 32-32h170.667c64.802 0 117.333 52.531 117.333 117.333 0 111.932-90.735 202.667-202.667 202.667h-85.333z" />
<glyph unicode="&#xe91c;" glyph-name="Calendar---Arrow-Right" d="M373.335 917.333v-53.333h183.738c34.227 0 65.348 0 93.594-0.543v53.876c0 17.673 14.327 32 32 32s32-14.327 32-32v-56.623c11.093-0.846 21.594-1.908 31.535-3.244 50.022-6.726 90.509-20.896 122.441-52.826s46.101-72.419 52.826-122.442c6.537-48.606 6.532-110.712 6.532-189.121v-90.155c0-78.409 0.004-140.514-6.532-189.12-6.724-50.022-20.894-90.513-52.826-122.445-31.932-31.927-72.418-46.097-122.441-52.826-48.606-6.532-110.711-6.532-189.12-6.532h-90.159c-78.409 0-140.514 0-189.12 6.532-50.023 6.729-90.512 20.898-122.442 52.826-31.93 31.932-46.1 72.422-52.826 122.445-6.535 48.606-6.535 110.707-6.534 189.116v188.14l-0.001 6.702c-0.015 58.96-0.023 96.559 10.507 127.979 20.198 60.261 67.494 107.557 127.755 127.755 20.832 6.982 44.381 9.331 75.072 10.117v53.722c0 17.673 14.327 32 32 32s32-14.327 32-32zM650.667 789.333v10.108c-27.849 0.545-59.563 0.559-96 0.559h-181.332v-10.667c0-17.673-14.327-32-32-32s-32 14.327-32 32v10.207c-26.729-0.698-41.929-2.437-54.734-6.729-41.231-13.819-73.592-46.18-87.411-87.411-6.77-20.2-7.188-46.364-7.188-114.342v-185.725c0-81.357 0.068-139.157 5.963-183.006 5.771-42.923 16.594-67.657 34.651-85.713s42.789-28.881 85.715-34.65c43.847-5.897 101.646-5.965 183.002-5.965h85.333c81.361 0 139.157 0.068 183.006 5.965 42.927 5.769 67.657 16.593 85.713 34.65s28.881 42.79 34.654 85.713c5.892 43.849 5.961 101.649 5.961 183.006v85.333c0 81.358-0.068 139.157-5.961 183.004-5.773 42.927-16.597 67.658-34.654 85.715s-42.786 28.88-85.713 34.651c-7.27 0.977-14.925 1.795-23.006 2.478v-7.182c0-17.673-14.327-32-32-32s-32 14.327-32 32zM577.293 598.627l128-128.001c12.497-12.497 12.497-32.755 0-45.252l-128-128c-12.497-12.497-32.755-12.497-45.252 0s-12.497 32.755 0 45.252l73.37 73.374h-264.077c-17.673 0-32 14.327-32 32s14.327 32 32 32h264.077l-73.37 73.373c-12.497 12.497-12.497 32.758 0 45.255s32.755 12.497 45.252 0z" />
<glyph unicode="&#xe91d;" glyph-name="Calendar---Cross" d="M373.335 917.333v-53.333h183.738c34.227 0 65.348 0 93.594-0.543v53.876c0 17.673 14.327 32 32 32s32-14.327 32-32v-56.623c11.093-0.846 21.594-1.908 31.535-3.244 50.022-6.726 90.509-20.896 122.441-52.826s46.101-72.419 52.826-122.442c6.537-48.606 6.532-110.712 6.532-189.121v-90.155c0-78.409 0.004-140.514-6.532-189.12-6.724-50.022-20.894-90.513-52.826-122.445-31.932-31.927-72.418-46.097-122.441-52.826-48.606-6.532-110.711-6.532-189.12-6.532h-90.159c-78.409 0-140.514 0-189.12 6.532-50.023 6.729-90.512 20.898-122.442 52.826-31.93 31.932-46.1 72.422-52.826 122.445-6.535 48.606-6.535 110.707-6.534 189.116v188.14l-0.001 6.702c-0.015 58.96-0.023 96.559 10.507 127.979 20.198 60.261 67.494 107.557 127.755 127.755 20.832 6.982 44.381 9.331 75.072 10.117v53.722c0 17.673 14.327 32 32 32s32-14.327 32-32zM650.667 789.333v10.108c-27.849 0.545-59.563 0.559-96 0.559h-181.332v-10.667c0-17.673-14.327-32-32-32s-32 14.327-32 32v10.207c-26.729-0.698-41.929-2.437-54.734-6.729-41.231-13.819-73.592-46.18-87.411-87.411-6.77-20.2-7.188-46.364-7.188-114.342v-185.725c0-81.357 0.068-139.157 5.963-183.006 5.771-42.923 16.594-67.657 34.651-85.713s42.789-28.881 85.715-34.65c43.847-5.897 101.646-5.965 183.002-5.965h85.333c81.361 0 139.157 0.068 183.006 5.965 42.927 5.769 67.657 16.593 85.713 34.65s28.881 42.79 34.654 85.713c5.892 43.849 5.961 101.649 5.961 183.006v85.333c0 81.358-0.068 139.157-5.961 183.004-5.773 42.927-16.597 67.658-34.654 85.715s-42.786 28.88-85.713 34.651c-7.27 0.977-14.925 1.795-23.006 2.478v-7.182c0-17.673-14.327-32-32-32s-32 14.327-32 32zM406.63 598.627l105.374-105.371 105.37 105.371c12.497 12.497 32.759 12.497 45.257 0s12.497-32.758 0-45.255l-105.374-105.373 105.374-105.374c12.497-12.497 12.497-32.755 0-45.252s-32.759-12.497-45.257 0l-105.37 105.37-105.374-105.37c-12.497-12.497-32.758-12.497-45.255 0s-12.497 32.755 0 45.252l105.373 105.374-105.373 105.373c-12.497 12.497-12.497 32.758 0 45.255s32.758 12.497 45.255 0z" />
<glyph unicode="&#xe91e;" glyph-name="Calendar---Dates" d="M373.335 917.333v-53.333h183.742c34.223 0 65.344 0 93.589-0.543v53.876c0 17.673 14.327 32 32 32 17.677 0 32-14.327 32-32v-56.623c11.093-0.846 21.594-1.908 31.535-3.244 50.022-6.726 90.509-20.896 122.441-52.826s46.101-72.419 52.826-122.442c6.537-48.606 6.537-110.712 6.532-189.121v-90.155c0.004-78.409 0.004-140.514-6.532-189.12-6.724-50.022-20.894-90.513-52.826-122.445-31.932-31.927-72.418-46.097-122.441-52.826-48.606-6.532-110.711-6.532-189.12-6.532h-90.159c-78.408 0-140.513 0-189.119 6.532-50.024 6.729-90.512 20.898-122.442 52.826-31.93 31.932-46.1 72.422-52.826 122.445-6.535 48.606-6.534 110.711-6.534 189.124v188.132l-0.001 6.702c-0.014 58.96-0.023 96.559 10.508 127.979 20.197 60.261 67.494 107.557 127.755 127.755 20.832 6.982 44.381 9.331 75.072 10.117v53.722c0 17.673 14.327 32 32 32s32-14.327 32-32zM650.667 789.333v10.108c-27.849 0.545-59.558 0.559-96 0.559h-181.331v-10.667c0-17.673-14.327-32-32-32s-32 14.327-32 32v10.207c-26.729-0.698-41.929-2.437-54.734-6.729-41.231-13.819-73.592-46.18-87.411-87.411-6.77-20.2-7.188-46.364-7.188-114.342v-185.725c0-81.357 0.068-139.157 5.963-183.006 5.771-42.923 16.594-67.657 34.651-85.713s42.789-28.881 85.715-34.65c43.847-5.897 101.646-5.965 183.002-5.965h85.333c81.361 0 139.157 0.068 183.006 5.965 42.927 5.769 67.657 16.593 85.713 34.65 18.061 18.057 28.881 42.79 34.654 85.713 5.897 43.849 5.961 101.649 5.961 183.006v85.333c0 81.358-0.064 139.157-5.961 183.004-5.773 42.927-16.593 67.658-34.654 85.715-18.057 18.057-42.786 28.88-85.713 34.651-7.27 0.977-14.925 1.795-23.006 2.478v-7.182c0-17.673-14.323-32-32-32-17.673 0-32 14.327-32 32zM298.669 650.667c-17.673 0-32-14.327-32-32s14.327-32 32-32h426.668c17.673 0 32 14.327 32 32s-14.327 32-32 32h-426.668zM384.003 448c0-23.565-19.102-42.667-42.667-42.667s-42.667 19.102-42.667 42.667c0 23.565 19.103 42.667 42.667 42.667s42.667-19.102 42.667-42.667zM341.336 234.667c23.564 0 42.667 19.102 42.667 42.667s-19.102 42.667-42.667 42.667c-23.564 0-42.667-19.102-42.667-42.667s19.103-42.667 42.667-42.667zM554.671 277.333c0-23.565-19.106-42.667-42.667-42.667-23.565 0-42.667 19.102-42.667 42.667s19.102 42.667 42.667 42.667c23.561 0 42.667-19.102 42.667-42.667zM682.671 234.667c23.561 0 42.667 19.102 42.667 42.667s-19.106 42.667-42.667 42.667c-23.565 0-42.667-19.102-42.667-42.667s19.102-42.667 42.667-42.667zM554.671 448c0-23.565-19.106-42.667-42.667-42.667-23.565 0-42.667 19.102-42.667 42.667s19.102 42.667 42.667 42.667c23.561 0 42.667-19.102 42.667-42.667zM682.671 405.333c23.561 0 42.667 19.102 42.667 42.667s-19.106 42.667-42.667 42.667c-23.565 0-42.667-19.102-42.667-42.667s19.102-42.667 42.667-42.667z" />
<glyph unicode="&#xe91f;" glyph-name="Calendar---Event" d="M341.335 949.333c-17.673 0-32-14.327-32-32v-53.722c-30.691-0.786-54.24-3.135-75.072-10.117-60.261-20.198-107.558-67.494-127.755-127.755-10.531-31.419-10.522-69.019-10.508-127.979l0.001-6.702v-188.132c-0.001-78.413-0.001-140.518 6.534-189.124 6.726-50.022 20.896-90.513 52.826-122.445 31.93-31.927 72.419-46.097 122.442-52.826 48.605-6.532 110.711-6.532 189.119-6.532h90.159c78.409 0 140.514 0 189.12 6.532 50.022 6.729 90.509 20.898 122.441 52.826 31.932 31.932 46.101 72.422 52.826 122.445 6.537 48.606 6.537 110.711 6.532 189.12v90.155c0.004 78.409 0.004 140.515-6.532 189.121-6.724 50.023-20.894 90.512-52.826 122.442s-72.418 46.1-122.441 52.826c-9.941 1.336-20.442 2.399-31.535 3.244v56.623c0 17.673-14.323 32-32 32-17.673 0-32-14.327-32-32v-53.876c-28.245 0.543-59.366 0.543-93.589 0.543h-183.742v53.333c0 17.673-14.327 32-32 32zM650.667 799.441v-10.108c0-17.673 14.327-32 32-32 17.677 0 32 14.327 32 32v7.182c8.081-0.684 15.735-1.501 23.006-2.478 42.927-5.771 67.657-16.594 85.713-34.651 18.061-18.057 28.881-42.789 34.654-85.715 5.897-43.847 5.961-101.646 5.961-183.004v-85.333c0-81.357-0.064-139.157-5.961-183.006-5.773-42.923-16.593-67.657-34.654-85.713-18.057-18.057-42.786-28.881-85.713-34.65-43.849-5.897-101.645-5.965-183.006-5.965h-85.333c-81.356 0-139.155 0.068-183.002 5.965-42.927 5.769-67.658 16.593-85.715 34.65s-28.88 42.79-34.651 85.713c-5.895 43.849-5.963 101.649-5.963 183.006v185.725c0 67.977 0.418 94.142 7.188 114.342 13.819 41.231 46.18 73.592 87.411 87.411 12.804 4.292 28.005 6.031 54.734 6.729v-10.207c0-17.673 14.327-32 32-32s32 14.327 32 32v10.667h181.331c36.442 0 68.151-0.014 96-0.559zM266.669 618.667c0-17.673 14.327-32 32-32h426.668c17.673 0 32 14.327 32 32s-14.327 32-32 32h-426.668c-17.673 0-32-14.327-32-32zM640 266.667h85.333c17.677 0 32-14.327 32-32s-14.323-32-32-32h-85.333c-17.673 0-32 14.327-32 32s14.327 32 32 32z" />
<glyph unicode="&#xe920;" glyph-name="Calendar---Minus" d="M373.335 917.333v-53.333h183.738c34.227 0 65.348 0 93.594-0.543v53.876c0 17.673 14.327 32 32 32s32-14.327 32-32v-56.623c11.093-0.846 21.594-1.908 31.535-3.244 50.022-6.726 90.509-20.896 122.441-52.826s46.101-72.419 52.826-122.442c6.537-48.606 6.532-110.712 6.532-189.121v-90.155c0-78.409 0.004-140.514-6.532-189.12-6.724-50.022-20.894-90.513-52.826-122.445-31.932-31.927-72.418-46.097-122.441-52.826-48.606-6.532-110.711-6.532-189.12-6.532h-90.159c-78.409 0-140.514 0-189.12 6.532-50.023 6.729-90.512 20.898-122.442 52.826-31.93 31.932-46.1 72.422-52.826 122.445-6.535 48.606-6.535 110.707-6.534 189.116v188.14l-0.001 6.702c-0.015 58.96-0.023 96.559 10.507 127.979 20.198 60.261 67.494 107.557 127.755 127.755 20.832 6.982 44.381 9.331 75.072 10.117v53.722c0 17.673 14.327 32 32 32s32-14.327 32-32zM650.667 789.333v10.108c-27.849 0.545-59.563 0.559-96 0.559h-181.332v-10.667c0-17.673-14.327-32-32-32s-32 14.327-32 32v10.207c-26.729-0.698-41.929-2.437-54.734-6.729-41.231-13.819-73.592-46.18-87.411-87.411-6.77-20.2-7.188-46.364-7.188-114.342v-185.725c0-81.357 0.068-139.157 5.963-183.006 5.771-42.923 16.594-67.657 34.651-85.713s42.789-28.881 85.715-34.65c43.847-5.897 101.646-5.965 183.002-5.965h85.333c81.361 0 139.157 0.068 183.006 5.965 42.927 5.769 67.657 16.593 85.713 34.65s28.881 42.79 34.654 85.713c5.892 43.849 5.961 101.649 5.961 183.006v85.333c0 81.358-0.068 139.157-5.961 183.004-5.773 42.927-16.597 67.658-34.654 85.715s-42.786 28.88-85.713 34.651c-7.27 0.977-14.925 1.795-23.006 2.478v-7.182c0-17.673-14.327-32-32-32s-32 14.327-32 32zM341.333 480h341.333c17.673 0 32-14.327 32-32s-14.327-32-32-32h-341.333c-17.673 0-32 14.327-32 32s14.327 32 32 32z" />
<glyph unicode="&#xe921;" glyph-name="Calendar---Note" d="M373.333 917.333v-53.347c7.546 0.013 15.382 0.013 23.521 0.013h160.218c34.227 0 65.348 0 93.594-0.543v53.876c0 17.673 14.327 32 32 32s32-14.327 32-32v-56.623c11.089-0.846 21.594-1.908 31.531-3.244 50.022-6.726 90.513-20.896 122.445-52.826 31.927-31.93 46.097-72.419 52.826-122.442 6.532-48.606 6.532-110.712 6.532-189.121v-90.155c0-78.409 0-140.514-6.532-189.12-6.729-50.022-20.898-90.513-52.826-122.445-31.932-31.927-72.422-46.097-122.445-52.826-48.606-6.532-110.711-6.532-189.12-6.532h-90.155c-78.409 0-140.515 0-189.121 6.532-50.024 6.729-90.512 20.898-122.442 52.826-31.93 31.932-46.1 72.422-52.826 122.445-6.535 48.606-6.534 110.711-6.534 189.124v160.218c0 45.291 0 81.184 2.301 110.141 2.353 29.606 7.26 54.689 18.6 77.684 19.732 40.013 52.116 72.397 92.129 92.129 22.996 11.34 48.079 16.247 77.684 18.6 7.11 0.565 14.637 0.991 22.619 1.313v54.321c0 17.673 14.327 32 32 32s32-14.327 32-32zM650.667 789.333v10.108c-27.849 0.545-59.563 0.559-96 0.559h-156.445c-8.756 0-17.038-0.001-24.889-0.016v-10.651c0-17.673-14.327-32-32-32s-32 14.327-32 32v9.626c-6.211-0.274-12.041-0.621-17.55-1.059-25.766-2.047-41.754-5.94-54.448-12.201-27.377-13.501-49.535-35.659-63.036-63.036-6.26-12.694-10.153-28.681-12.201-54.448-2.076-26.125-2.1-59.476-2.1-106.438v-156.445c0-81.357 0.068-139.157 5.963-183.006 5.771-42.923 16.594-67.657 34.651-85.713s42.789-28.881 85.715-34.65c43.847-5.897 101.646-5.965 183.004-5.965h85.333c81.357 0 139.157 0.068 183.006 5.965 42.923 5.769 67.657 16.593 85.713 34.65s28.881 42.79 34.65 85.713c5.897 43.849 5.965 101.649 5.965 183.006v85.333c0 81.358-0.068 139.157-5.965 183.004-5.769 42.927-16.593 67.658-34.65 85.715s-42.79 28.88-85.713 34.651c-7.27 0.977-14.925 1.795-23.006 2.478v-7.182c0-17.673-14.327-32-32-32s-32 14.327-32 32zM298.667 650.667h426.667c17.673 0 32-14.327 32-32s-14.327-32-32-32h-426.667c-17.673 0-32 14.327-32 32s14.327 32 32 32zM266.667 448c0-17.673 14.327-32 32-32h256c17.673 0 32 14.327 32 32s-14.327 32-32 32h-256c-17.673 0-32-14.327-32-32zM298.667 309.333h128c17.673 0 32-14.327 32-32s-14.327-32-32-32h-128c-17.673 0-32 14.327-32 32s14.327 32 32 32z" />
<glyph unicode="&#xe922;" glyph-name="Calendar---Number" d="M341.335 949.333c-17.673 0-32-14.327-32-32v-53.722c-30.691-0.786-54.24-3.135-75.072-10.117-60.261-20.198-107.557-67.494-127.755-127.755-10.531-31.419-10.522-69.019-10.507-127.979l0.001-6.702v-188.14c-0.001-78.409-0.001-140.51 6.534-189.116 6.725-50.022 20.896-90.513 52.826-122.445 31.93-31.927 72.419-46.097 122.442-52.826 48.605-6.532 110.711-6.532 189.12-6.532h90.159c78.409 0 140.514 0 189.12 6.532 50.022 6.729 90.509 20.898 122.441 52.826 31.932 31.932 46.101 72.422 52.826 122.445 6.537 48.606 6.532 110.711 6.532 189.12v90.155c0 78.409 0.004 140.515-6.532 189.121-6.724 50.023-20.894 90.512-52.826 122.442s-72.418 46.1-122.441 52.826c-9.941 1.336-20.442 2.399-31.535 3.244v56.623c0 17.673-14.327 32-32 32s-32-14.327-32-32v-53.876c-28.245 0.543-59.366 0.543-93.594 0.543h-183.738v53.333c0 17.673-14.327 32-32 32zM650.667 799.441v-10.108c0-17.673 14.327-32 32-32s32 14.327 32 32v7.182c8.081-0.684 15.735-1.501 23.006-2.478 42.927-5.771 67.657-16.594 85.713-34.651s28.881-42.789 34.654-85.715c5.892-43.847 5.961-101.646 5.961-183.004v-85.333c0-81.357-0.068-139.157-5.961-183.006-5.773-42.923-16.597-67.657-34.654-85.713s-42.786-28.881-85.713-34.65c-43.849-5.897-101.645-5.965-183.006-5.965h-85.333c-81.356 0-139.156 0.068-183.002 5.965-42.927 5.769-67.658 16.593-85.715 34.65s-28.88 42.79-34.651 85.713c-5.895 43.849-5.963 101.649-5.963 183.006v185.725c0 67.977 0.418 94.142 7.188 114.342 13.819 41.231 46.18 73.592 87.411 87.411 12.804 4.292 28.005 6.031 54.734 6.729v-10.207c0-17.673 14.327-32 32-32s32 14.327 32 32v10.667h181.332c36.437 0 68.151-0.014 96-0.559zM632.324 360.819c-0.149-50.304-50.453-87.727-120.452-87.727-70.003 0-120.457 37.423-120.305 87.727-0.151 38.788 29.394 70.455 67.275 76.668v2.121c-33.032 6.665-55.911 34.846-55.759 68.787-0.151 48.029 45.908 83.484 108.79 83.484 62.724 0 108.787-35.455 108.937-83.484-0.149-34.091-23.334-62.123-55.757-68.787v-2.121c37.274-6.212 67.123-37.879 67.273-76.668zM459.75 365.969c0-26.21 20.907-44.698 52.122-44.698 31.057 0 52.117 18.334 52.117 44.698 0 26.82-22.118 46.212-52.117 46.212-30.153 0-52.122-19.392-52.122-46.212zM467.021 501.577c0-24.546 18.637-41.668 44.851-41.668 26.057 0 44.847 17.122 44.847 41.668 0 24.090-18.483 40.908-44.847 40.908-26.517 0-44.851-16.665-44.851-40.908z" />
<glyph unicode="&#xe923;" glyph-name="Calendar---Person" d="M341.333 949.333c-17.673 0-32-14.327-32-32v-54.321c-7.982-0.322-15.51-0.748-22.619-1.313-29.606-2.353-54.689-7.26-77.684-18.6-40.013-19.732-72.397-52.116-92.129-92.129-11.34-22.996-16.247-48.079-18.6-77.684-2.301-28.957-2.301-64.849-2.301-110.141v-160.218c-0.001-78.413-0.001-140.518 6.534-189.124 6.726-50.022 20.896-90.513 52.826-122.445 31.93-31.927 72.419-46.097 122.442-52.826 48.606-6.532 110.712-6.532 189.121-6.532h90.155c78.409 0 140.514 0 189.12 6.532 50.022 6.729 90.513 20.898 122.445 52.826 31.927 31.932 46.097 72.422 52.826 122.445 6.532 48.606 6.532 110.711 6.532 189.12v90.155c0 78.409 0 140.515-6.532 189.121-6.729 50.024-20.898 90.512-52.826 122.442-31.932 31.93-72.422 46.1-122.445 52.826-9.937 1.336-20.442 2.399-31.531 3.244v56.623c0 17.673-14.327 32-32 32s-32-14.327-32-32v-53.876c-28.245 0.543-59.366 0.543-93.594 0.543h-160.218c-8.14 0-15.975 0-23.521-0.013v53.347c0 17.673-14.327 32-32 32zM650.667 799.441v-10.108c0-17.673 14.327-32 32-32s32 14.327 32 32v7.182c8.081-0.684 15.735-1.501 23.006-2.478 42.923-5.771 67.657-16.594 85.713-34.651s28.881-42.789 34.65-85.715c5.897-43.847 5.965-101.646 5.965-183.004v-85.333c0-81.357-0.068-139.157-5.965-183.006-5.769-42.923-16.593-67.657-34.65-85.713s-42.79-28.881-85.713-34.65c-43.849-5.897-101.649-5.965-183.006-5.965h-85.333c-81.358 0-139.157 0.068-183.004 5.965-42.927 5.769-67.658 16.593-85.715 34.65s-28.88 42.79-34.651 85.713c-5.895 43.849-5.963 101.649-5.963 183.006v156.445c0 46.962 0.023 80.314 2.1 106.438 2.047 25.766 5.94 41.754 12.201 54.448 13.501 27.377 35.659 49.535 63.036 63.036 12.694 6.26 28.681 10.153 54.448 12.201 5.509 0.438 11.339 0.784 17.55 1.059v-9.626c0-17.673 14.327-32 32-32s32 14.327 32 32v10.651c7.851 0.015 16.133 0.016 24.889 0.016h156.445c36.437 0 68.151-0.014 96-0.559zM512 629.333c-29.457 0-53.333-23.878-53.333-53.333s23.876-53.333 53.333-53.333c29.457 0 53.333 23.878 53.333 53.333s-23.876 53.333-53.333 53.333zM394.667 576c0 64.801 52.531 117.333 117.333 117.333s117.333-52.532 117.333-117.333c0-64.802-52.531-117.333-117.333-117.333s-117.333 52.531-117.333 117.333zM426.667 394.667c-64.801 0-117.333-52.531-117.333-117.333 0-41.237 33.429-74.667 74.667-74.667h256c41.237 0 74.667 33.429 74.667 74.667 0 64.802-52.531 117.333-117.333 117.333h-170.667zM373.333 277.333c0 29.457 23.878 53.333 53.333 53.333h170.667c29.457 0 53.333-23.876 53.333-53.333 0-5.892-4.774-10.667-10.667-10.667h-256c-5.891 0-10.667 4.774-10.667 10.667z" />
<glyph unicode="&#xe924;" glyph-name="Calendar---Plus" d="M373.335 917.333v-53.333h183.742c34.223 0 65.344 0 93.589-0.543v53.876c0 17.673 14.327 32 32 32 17.677 0 32-14.327 32-32v-56.623c11.093-0.846 21.594-1.908 31.535-3.244 50.022-6.726 90.509-20.896 122.441-52.826s46.101-72.419 52.826-122.442c6.537-48.606 6.537-110.712 6.532-189.121v-90.155c0.004-78.409 0.004-140.514-6.532-189.12-6.724-50.022-20.894-90.513-52.826-122.445-31.932-31.927-72.418-46.097-122.441-52.826-48.606-6.532-110.711-6.532-189.12-6.532h-90.159c-78.408 0-140.513 0-189.119 6.532-50.024 6.729-90.512 20.898-122.442 52.826-31.93 31.932-46.1 72.422-52.826 122.445-6.535 48.606-6.534 110.711-6.534 189.124v188.132l-0.001 6.702c-0.014 58.96-0.023 96.559 10.508 127.979 20.197 60.261 67.494 107.557 127.755 127.755 20.832 6.982 44.381 9.331 75.072 10.117v53.722c0 17.673 14.327 32 32 32s32-14.327 32-32zM650.667 789.333v10.108c-27.849 0.545-59.558 0.559-96 0.559h-181.331v-10.667c0-17.673-14.327-32-32-32s-32 14.327-32 32v10.207c-26.729-0.698-41.929-2.437-54.734-6.729-41.231-13.819-73.592-46.18-87.411-87.411-6.77-20.2-7.188-46.364-7.188-114.342v-185.725c0-81.357 0.068-139.157 5.963-183.006 5.771-42.923 16.594-67.657 34.651-85.713s42.789-28.881 85.715-34.65c43.847-5.897 101.646-5.965 183.002-5.965h85.333c81.361 0 139.157 0.068 183.006 5.965 42.927 5.769 67.657 16.593 85.713 34.65 18.061 18.057 28.881 42.79 34.654 85.713 5.897 43.849 5.961 101.649 5.961 183.006v85.333c0 81.358-0.064 139.157-5.961 183.004-5.773 42.927-16.593 67.658-34.654 85.715-18.057 18.057-42.786 28.88-85.713 34.651-7.27 0.977-14.925 1.795-23.006 2.478v-7.182c0-17.673-14.323-32-32-32-17.673 0-32 14.327-32 32zM544 618.667v-138.667h138.667c17.673 0 32-14.327 32-32s-14.327-32-32-32h-138.667v-138.667c0-17.673-14.327-32-32-32s-32 14.327-32 32v138.667h-138.667c-17.673 0-32 14.327-32 32s14.327 32 32 32h138.667v138.667c0 17.673 14.327 32 32 32s32-14.327 32-32z" />
<glyph unicode="&#xe925;" glyph-name="Calendar" d="M373.333 917.333v-53.347c7.546 0.013 15.382 0.013 23.521 0.013h160.218c34.227 0 65.348 0 93.594-0.543v53.876c0 17.673 14.327 32 32 32s32-14.327 32-32v-56.623c11.089-0.846 21.594-1.908 31.531-3.244 50.022-6.726 90.513-20.896 122.445-52.826 31.927-31.93 46.097-72.419 52.826-122.442 6.532-48.606 6.532-110.712 6.532-189.121v-90.155c0-78.409 0-140.514-6.532-189.12-6.729-50.022-20.898-90.513-52.826-122.445-31.932-31.927-72.422-46.097-122.445-52.826-48.606-6.532-110.711-6.532-189.12-6.532h-90.155c-78.409 0-140.515 0-189.121 6.532-50.024 6.729-90.512 20.898-122.442 52.826-31.93 31.932-46.1 72.422-52.826 122.445-6.535 48.606-6.534 110.711-6.534 189.124v160.218c0 45.291 0 81.184 2.301 110.141 2.353 29.606 7.26 54.689 18.6 77.684 19.732 40.013 52.116 72.397 92.129 92.129 22.996 11.34 48.079 16.247 77.684 18.6 7.11 0.565 14.637 0.991 22.619 1.313v54.321c0 17.673 14.327 32 32 32s32-14.327 32-32zM650.667 789.333v10.108c-27.849 0.545-59.563 0.559-96 0.559h-156.445c-8.756 0-17.038-0.001-24.889-0.016v-10.651c0-17.673-14.327-32-32-32s-32 14.327-32 32v9.626c-6.211-0.274-12.041-0.621-17.55-1.059-25.766-2.047-41.754-5.94-54.448-12.201-27.377-13.501-49.535-35.659-63.036-63.036-6.26-12.694-10.153-28.681-12.201-54.448-2.076-26.125-2.1-59.476-2.1-106.438v-156.445c0-81.357 0.068-139.157 5.963-183.006 5.771-42.923 16.594-67.657 34.651-85.713s42.789-28.881 85.715-34.65c43.847-5.897 101.646-5.965 183.004-5.965h85.333c81.357 0 139.157 0.068 183.006 5.965 42.923 5.769 67.657 16.593 85.713 34.65s28.881 42.79 34.65 85.713c5.897 43.849 5.965 101.649 5.965 183.006v85.333c0 81.358-0.068 139.157-5.965 183.004-5.769 42.927-16.593 67.658-34.65 85.715s-42.79 28.88-85.713 34.651c-7.27 0.977-14.925 1.795-23.006 2.478v-7.182c0-17.673-14.327-32-32-32s-32 14.327-32 32zM298.667 650.667h426.667c17.673 0 32-14.327 32-32s-14.327-32-32-32h-426.667c-17.673 0-32 14.327-32 32s14.327 32 32 32z" />
<glyph unicode="&#xe926;" glyph-name="Clock---Check" d="M235.961 852.039c12.497 12.497 12.497 32.758 0 45.255s-32.758 12.497-45.255 0l-128-128c-12.497-12.497-12.497-32.758 0-45.255s32.758-12.497 45.255 0l128 128zM160 448c0 194.404 157.596 352 352 352 194.402 0 352-157.596 352-352 0-194.402-157.598-352-352-352-194.404 0-352 157.598-352 352zM512 864c-229.751 0-416-186.249-416-416s186.249-416 416-416c229.751 0 416 186.249 416 416s-186.249 416-416 416zM788.041 897.294c-12.497-12.497-12.497-32.758 0-45.255l128-128c12.497-12.497 32.755-12.497 45.252 0s12.497 32.758 0 45.255l-128 128c-12.497 12.497-32.755 12.497-45.252 0zM705.293 553.373c12.497 12.497 12.497 32.758 0 45.255s-32.755 12.497-45.252 0l-190.707-190.704-62.706 62.703c-12.497 12.497-32.758 12.497-45.255 0s-12.497-32.755 0-45.252l85.335-85.333c5.999-6.003 14.14-9.374 22.626-9.374s16.627 3.371 22.626 9.374l213.333 213.332z" />
<glyph unicode="&#xe927;" glyph-name="Clock---Cross" d="M235.961 852.039c12.497 12.497 12.497 32.758 0 45.255s-32.758 12.497-45.255 0l-128-128c-12.497-12.497-12.497-32.758 0-45.255s32.758-12.497 45.255 0l128 128zM160 448c0 194.404 157.596 352 352 352 194.402 0 352-157.596 352-352 0-194.402-157.598-352-352-352-194.404 0-352 157.598-352 352zM512 864c-229.751 0-416-186.249-416-416s186.249-416 416-416c229.751 0 416 186.249 416 416s-186.249 416-416 416zM788.041 897.294c-12.497-12.497-12.497-32.758 0-45.255l128-128c12.497-12.497 32.755-12.497 45.252 0s12.497 32.758 0 45.255l-128 128c-12.497 12.497-32.755 12.497-45.252 0zM406.627 598.627c-12.497 12.497-32.758 12.497-45.255 0s-12.497-32.758 0-45.255l105.371-105.373-105.371-105.374c-12.497-12.497-12.497-32.755 0-45.252s32.758-12.497 45.255 0l105.373 105.37 105.374-105.37c12.497-12.497 32.755-12.497 45.252 0s12.497 32.755 0 45.252l-105.37 105.374 105.37 105.373c12.497 12.497 12.497 32.758 0 45.255s-32.755 12.497-45.252 0l-105.374-105.371-105.373 105.371z" />
<glyph unicode="&#xe928;" glyph-name="Clock---Minus" d="M235.961 852.039c12.497 12.497 12.497 32.758 0 45.255s-32.758 12.497-45.255 0l-128-128c-12.497-12.497-12.497-32.758 0-45.255s32.758-12.497 45.255 0l128 128zM160 448c0 194.404 157.596 352 352 352 194.402 0 352-157.596 352-352 0-194.402-157.598-352-352-352-194.404 0-352 157.598-352 352zM512 864c-229.751 0-416-186.249-416-416s186.249-416 416-416c229.751 0 416 186.249 416 416s-186.249 416-416 416zM788.041 897.294c-12.497-12.497-12.497-32.758 0-45.255l128-128c12.497-12.497 32.755-12.497 45.252 0s12.497 32.758 0 45.255l-128 128c-12.497 12.497-32.755 12.497-45.252 0zM341.332 480c-17.673 0-32-14.327-32-32s14.327-32 32-32h341.335c17.673 0 32 14.327 32 32s-14.327 32-32 32h-341.335z" />
<glyph unicode="&#xe929;" glyph-name="Clock---Plus" d="M235.961 852.039c12.497 12.497 12.497 32.758 0 45.255s-32.758 12.497-45.255 0l-128-128c-12.497-12.497-12.497-32.758 0-45.255s32.758-12.497 45.255 0l128 128zM160 448c0 194.404 157.596 352 352 352 194.402 0 352-157.596 352-352 0-194.402-157.598-352-352-352-194.404 0-352 157.598-352 352zM512 864c-229.751 0-416-186.249-416-416s186.249-416 416-416c229.751 0 416 186.249 416 416s-186.249 416-416 416zM788.041 897.294c-12.497-12.497-12.497-32.758 0-45.255l128-128c12.497-12.497 32.755-12.497 45.252 0s12.497 32.758 0 45.255l-128 128c-12.497 12.497-32.755 12.497-45.252 0zM544 618.667c0 17.673-14.327 32-32 32s-32-14.327-32-32v-138.667h-138.668c-17.673 0-32-14.327-32-32s14.327-32 32-32h138.668v-138.667c0-17.673 14.327-32 32-32s32 14.327 32 32v138.667h138.667c17.673 0 32 14.327 32 32s-14.327 32-32 32h-138.667v138.667z" />
<glyph unicode="&#xe92a;" glyph-name="Clock---Slash" d="M788.041 852.039c-12.497 12.497-12.497 32.758 0 45.255s32.755 12.497 45.252 0l128-128c12.497-12.497 12.497-32.758 0-45.255s-32.755-12.497-45.252 0l-128 128zM150.627 854.627c-6.001 6.001-14.141 9.373-22.627 9.373s-16.626-3.372-22.627-9.373l-64-64c-12.497-12.497-12.497-32.758 0-45.255s32.758-12.497 45.255 0l41.373 41.373 68.083-68.083c-62.365-72.733-100.083-167.318-100.083-270.662 0-229.751 186.249-416 416-416 103.343 0 197.926 37.717 270.66 100.083l90.714-90.709c12.497-12.497 32.755-12.497 45.252 0s12.497 32.755 0 45.252l-767.999 768.001zM160 448c0 85.693 30.588 164.194 81.494 225.251l495.756-495.758c-61.056-50.906-139.558-81.493-225.25-81.493-194.404 0-352 157.598-352 352zM355.574 763.428c47.086 23.4 100.17 36.572 156.426 36.572 194.402 0 352-157.596 352-352 0-56.256-13.171-109.342-36.574-156.425-7.863-15.829-1.408-35.034 14.417-42.897 15.825-7.868 35.034-1.412 42.897 14.413 27.699 55.74 43.26 118.554 43.26 184.909 0 229.751-186.249 416-416 416-66.355 0-129.17-15.56-184.908-43.259-15.827-7.865-22.281-27.071-14.416-42.897s27.071-22.281 42.897-14.416z" />
<glyph unicode="&#xe92b;" glyph-name="Clock---Zzz" d="M235.961 852.039c12.497 12.497 12.497 32.758 0 45.255s-32.758 12.497-45.255 0l-128-128c-12.497-12.497-12.497-32.758 0-45.255s32.758-12.497 45.255 0l128 128zM160 448c0 194.404 157.596 352 352 352 194.402 0 352-157.596 352-352 0-194.402-157.598-352-352-352-194.404 0-352 157.598-352 352zM512 864c-229.751 0-416-186.249-416-416s186.249-416 416-416c229.751 0 416 186.249 416 416s-186.249 416-416 416zM788.041 897.294c-12.497-12.497-12.497-32.758 0-45.255l128-128c12.497-12.497 32.755-12.497 45.252 0s12.497 32.758 0 45.255l-128 128c-12.497 12.497-32.755 12.497-45.252 0zM426.667 608c-17.673 0-32-14.327-32-32s14.327-32 32-32h110.874l-137.499-206.251c-6.546-9.818-7.156-22.443-1.588-32.849s16.412-16.9 28.214-16.9h170.667c17.673 0 32 14.327 32 32s-14.327 32-32 32h-110.874l137.498 206.249c6.549 9.82 7.159 22.445 1.591 32.85-5.572 10.405-16.414 16.901-28.215 16.901h-170.667z" />
<glyph unicode="&#xe92c;" glyph-name="Clock" d="M235.961 897.294c12.497-12.497 12.497-32.758 0-45.255l-128-128c-12.497-12.497-32.758-12.497-45.255 0s-12.497 32.758 0 45.255l128 128c12.497 12.497 32.758 12.497 45.255 0zM160 448c0 194.404 157.596 352 352 352 194.402 0 352-157.596 352-352 0-194.402-157.598-352-352-352-194.404 0-352 157.598-352 352zM512 864c-229.751 0-416-186.249-416-416s186.249-416 416-416c229.751 0 416 186.249 416 416s-186.249 416-416 416zM544 618.667c0 17.673-14.327 32-32 32s-32-14.327-32-32v-170.667c0-10.701 5.346-20.689 14.251-26.624l128-85.333c14.703-9.805 34.573-5.833 44.373 8.875 9.805 14.703 5.833 34.573-8.875 44.373l-113.749 75.836v153.54zM788.041 852.039c-12.497 12.497-12.497 32.758 0 45.255s32.755 12.497 45.252 0l128-128c12.497-12.497 12.497-32.758 0-45.255s-32.755-12.497-45.252 0l-128 128z" />
<glyph unicode="&#xe92d;" glyph-name="History" d="M512 864c-137.495 0-240.495-57.425-308.485-114.083-16.509-13.757-31.011-27.511-43.514-40.463v79.879c0 17.673-14.327 32-32 32s-32-14.327-32-32v-170.667c0-17.673 14.327-32 32-32h149.333c17.673 0 32 14.327 32 32s-14.327 32-32 32h-84.584c13.601 15.275 30.855 32.682 51.736 50.083 60.010 50.008 149.010 99.25 267.514 99.25 195.593 0 352-157.527 352-352 0-194.402-157.594-352-352-352-194.403 0-351.999 157.598-351.999 352 0 17.673-14.327 32-32 32s-32-14.327-32-32c0-229.751 186.249-416 415.999-416s416 186.249 416 416c0 229.682-184.926 416-416 416zM544 618.667c0 17.673-14.327 32-32 32s-32-14.327-32-32v-170.667c0-10.701 5.346-20.689 14.251-26.624l128-85.333c14.703-9.805 34.573-5.833 44.378 8.875 9.801 14.703 5.828 34.573-8.879 44.373l-113.749 75.836v153.54z" />
<glyph unicode="&#xe92e;" glyph-name="Speed" d="M394.667 917.333c0 17.673 14.327 32 32 32h170.667c17.673 0 32-14.327 32-32s-14.327-32-32-32h-170.667c-17.673 0-32 14.327-32 32zM160 405.333c0 194.404 157.596 352 352 352 194.402 0 352-157.596 352-352 0-194.406-157.598-352-352-352h-213.333c-17.673 0-32-14.327-32-32s14.327-32 32-32h213.333c229.751 0 416 186.249 416 416s-186.249 416-416 416-416-186.25-416-416c0-17.673 14.327-32 32-32s32 14.327 32 32zM53.333 277.333c0 17.673 14.327 32 32 32h213.333c17.673 0 32-14.327 32-32s-14.327-32-32-32h-213.333c-17.673 0-32 14.327-32 32zM138.667 149.333c0 17.673 14.327 32 32 32h256c17.673 0 32-14.327 32-32s-14.327-32-32-32h-256c-17.673 0-32 14.327-32 32zM544 533.333c0 17.673-14.327 32-32 32s-32-14.327-32-32v-170.667c0-17.673 14.327-32 32-32s32 14.327 32 32v170.667z" />
<glyph unicode="&#xe92f;" glyph-name="Stopwatch---Slash" d="M426.667 949.333c-17.673 0-32-14.327-32-32s14.327-32 32-32h170.667c17.673 0 32 14.327 32 32s-14.327 32-32 32h-170.667zM150.627 811.961c-12.497 12.497-32.758 12.497-45.255 0s-12.497-32.758 0-45.255l90.711-90.711c-62.365-72.733-100.083-167.319-100.083-270.662 0-229.751 186.249-416 416-416 103.343 0 197.931 37.717 270.66 100.083l90.714-90.709c12.497-12.497 32.755-12.497 45.252 0s12.497 32.755 0 45.252l-767.999 768.001zM160 405.333c0 85.692 30.588 164.194 81.494 225.251l495.756-495.758c-61.056-50.906-139.558-81.493-225.25-81.493-194.404 0-352 157.594-352 352zM355.574 720.761c47.086 23.4 100.17 36.572 156.426 36.572 97.212 0 185.169-39.364 248.9-103.098 63.735-63.735 103.1-151.69 103.1-248.902 0-56.256-13.171-109.342-36.574-156.425-7.863-15.829-1.408-35.034 14.417-42.897 15.825-7.868 35.034-1.412 42.897 14.413 27.699 55.74 43.26 118.554 43.26 184.909 0 103.343-37.717 197.929-100.083 270.662l69.376 69.377c12.497 12.497 12.497 32.758 0 45.255s-32.755 12.497-45.252 0l-69.38-69.377c-72.73 62.365-167.317 100.083-270.66 100.083-66.355 0-129.17-15.56-184.908-43.259-15.827-7.865-22.281-27.071-14.416-42.897s27.071-22.281 42.897-14.416z" />
<glyph unicode="&#xe930;" glyph-name="Stopwatch" d="M426.667 949.333c-17.673 0-32-14.327-32-32s14.327-32 32-32h170.667c17.673 0 32 14.327 32 32s-14.327 32-32 32h-170.667zM512 757.333c-194.404 0-352-157.596-352-352 0-194.406 157.596-352 352-352 194.402 0 352 157.594 352 352 0 97.212-39.364 185.167-103.1 248.902-63.731 63.735-151.689 103.098-248.9 103.098zM96 405.333c0 229.751 186.249 416 416 416 103.343 0 197.931-37.718 270.66-100.083l69.38 69.377c12.497 12.497 32.755 12.497 45.252 0s12.497-32.758 0-45.255l-69.376-69.377c62.366-72.733 100.083-167.319 100.083-270.662 0-229.751-186.249-416-416-416s-416 186.249-416 416zM512 565.333c17.673 0 32-14.327 32-32v-170.667c0-17.673-14.327-32-32-32s-32 14.327-32 32v170.667c0 17.673 14.327 32 32 32z" />
<glyph unicode="&#xe931;" glyph-name="Time" d="M512 864c-229.751 0-416-186.249-416-416s186.249-416 416-416c229.751 0 416 186.249 416 416s-186.249 416-416 416zM160 448c0 194.404 157.596 352 352 352 194.402 0 352-157.596 352-352 0-194.402-157.598-352-352-352-194.404 0-352 157.598-352 352zM544 618.667c0 17.673-14.327 32-32 32s-32-14.327-32-32v-170.667c0-10.701 5.346-20.689 14.251-26.624l128-85.333c14.703-9.805 34.573-5.833 44.373 8.875 9.805 14.703 5.833 34.573-8.875 44.373l-113.749 75.836v153.54z" />
<glyph unicode="&#xe932;" glyph-name="Timer---2" d="M480 832c0 17.673 14.327 32 32 32 229.751 0 416-186.249 416-416s-186.249-416-416-416c-229.751 0-416 186.249-416 416 0 114.866 46.598 218.91 121.844 294.156 12.497 12.497 32.758 12.497 45.255 0s12.497-32.758 0-45.255c-63.735-63.735-103.098-151.691-103.098-248.902 0-194.402 157.596-352 352-352 194.402 0 352 157.598 352 352 0 183.617-140.591 334.398-320 350.565v-94.565c0-17.673-14.327-32-32-32s-32 14.327-32 32v128zM361.373 598.627c12.497 12.497 32.758 12.497 45.255 0l127.999-128.001c12.497-12.497 12.497-32.755 0-45.252s-32.755-12.497-45.252 0l-128.001 127.999c-12.497 12.497-12.497 32.758 0 45.255z" />
<glyph unicode="&#xe933;" glyph-name="Timer" d="M680.388 795.18c-38.272 4.759-92.254 4.82-168.375 4.82h-112.469c-27.563 0-47.074-0.009-61.624-0.704-15.157-0.724-21.149-2.107-23.409-2.996-28.114-11.055-41.442-43.232-29.38-70.929 0.97-2.227 4.229-7.442 14.435-18.672 9.797-10.78 23.587-24.582 43.077-44.072l96.002-96c12.497-12.497 12.497-32.758 0-45.254-12.498-12.497-32.76-12.497-45.257 0l-96.626 96.625c-18.725 18.725-33.607 33.607-44.558 45.655-10.663 11.733-20.261 23.56-25.75 36.163-26.537 60.933 2.785 131.722 64.635 156.044 12.792 5.030 27.942 6.607 43.779 7.363 16.263 0.777 37.31 0.777 63.792 0.777h115.815c73.118 0.001 131.11 0.001 173.811-5.309 41.907-5.211 80.747-16.669 101.564-50.399 6.596-10.691 11.435-22.373 14.332-34.598 9.126-38.571-10.231-74.135-36.177-107.453-26.441-33.949-67.452-74.957-119.151-126.658l-226.683-226.683c-53.826-53.824-91.955-92.041-115.651-122.466-24.485-31.441-26.228-45.628-24.392-53.385 1.315-5.559 3.515-10.867 6.514-15.727 4.188-6.784 15.453-15.586 54.997-20.501 38.271-4.762 92.252-4.821 168.374-4.821h112.474c27.563 0 47.074 0.009 61.623 0.704 15.155 0.725 21.15 2.108 23.407 2.995 28.117 11.055 41.442 43.234 29.38 70.929-0.969 2.227-4.228 7.441-14.434 18.671-9.796 10.782-23.586 24.585-43.076 44.075l-96 96c-12.497 12.497-12.497 32.755 0 45.252s32.759 12.497 45.257 0l96.619-96.623c18.731-18.726 33.613-33.609 44.565-45.658 10.662-11.733 20.258-23.561 25.749-36.164 26.534-60.932-2.786-131.721-64.636-156.041-12.791-5.030-27.942-6.609-43.78-7.364-16.265-0.777-37.312-0.777-63.791-0.777h-115.814c-73.118 0-131.112 0-173.814 5.308-41.906 5.214-80.744 16.67-101.562 50.402-6.598 10.688-11.437 22.37-14.331 34.598-9.13 38.571 10.23 74.133 36.177 107.452 26.44 33.95 67.448 74.957 119.15 126.656l226.68 226.682c53.828 53.826 91.955 92.040 115.652 122.467 24.486 31.439 26.227 45.627 24.393 53.386-1.314 5.557-3.516 10.867-6.515 15.727-4.186 6.785-15.454 15.584-54.997 20.502z" />
<glyph unicode="&#xe934;" glyph-name="Bug" d="M512 864c88.367 0 160-71.634 160-160v-16.497c40.691-27.237 74.052-64.568 96.503-108.411l29.888 29.888c38.844 38.842 51.563 52.361 58.304 68.635s7.305 34.826 7.305 89.757v21.961c0 17.673 14.327 32 32 32s32-14.327 32-32v-21.961l0.004-6.084c0.021-46.412 0.038-78.666-12.181-108.164s-35.038-52.295-67.87-85.097l-55.262-55.258c4.783-20.817 7.309-42.5 7.309-64.768v-128c0-9.468-0.457-18.829-1.348-28.062l49.301-49.297c32.832-32.802 55.65-55.599 67.87-85.099s12.203-61.751 12.181-108.164l-0.004-6.084v-21.961c0-17.673-14.327-32-32-32s-32 14.327-32 32v21.961c0 54.933-0.563 73.485-7.305 89.758s-19.46 29.794-58.304 68.634l-16.794 16.794c-41.050-108.962-146.27-186.479-269.598-186.479-123.323 0-228.544 77.517-269.596 186.479l-16.794-16.794c-38.842-38.839-51.559-52.361-58.301-68.634s-7.308-34.825-7.308-89.758v-21.961c0-17.673-14.327-32-32-32s-32 14.327-32 32v21.961l-0.002 6.084c-0.022 46.413-0.038 78.665 12.181 108.164s35.037 52.297 67.87 85.099l49.3 49.297c-0.893 9.233-1.35 18.594-1.35 28.062v128c0 22.268 2.528 43.951 7.312 64.768l-55.262 55.258c-32.834 32.802-55.651 55.598-67.87 85.097s-12.203 61.752-12.181 108.164l0.002 6.084v21.961c0 17.673 14.327 32 32 32s32-14.327 32-32v-21.961c0-54.931 0.567-73.482 7.308-89.757s19.459-29.793 58.301-68.635l29.888-29.888c22.452 43.843 55.814 81.174 96.503 108.411v16.497c0 88.366 71.634 160 159.999 160zM606.66 720.082c-7.65 45.363-47.121 79.918-94.66 79.918s-87.006-34.555-94.657-79.918c29.646 10.313 61.497 15.918 94.657 15.918s65.011-5.604 94.66-15.918zM544 320v-221.73c108.557 15.526 192 108.881 192 221.73v128c0 123.712-100.288 224-224 224-123.71 0-223.999-100.288-223.999-224v-128c0-112.849 83.447-206.204 191.999-221.73v221.73c0 17.673 14.327 32 32 32s32-14.327 32-32z" />
<glyph unicode="&#xe935;" glyph-name="Eye---Slash" d="M150.623 854.626l767.999-768c12.497-12.497 12.497-32.759 0-45.257s-32.755-12.497-45.252 0l-126.246 126.246c-63.991-30.601-142.127-50.283-235.123-50.283-157.539 0-271.913 56.474-347.038 125.82-37.371 34.496-64.966 72.115-83.343 107.396-18.078 34.714-28.285 69.222-28.285 97.451 0 36.211 16.816 83.546 47.238 129.549 27.076 40.942 66.301 82.99 118.617 118.002l-113.82 113.82c-12.497 12.497-12.497 32.758 0 45.255s32.758 12.497 45.255 0zM698.658 216.081l-98.428 98.428c-25.293-16.742-55.646-26.509-88.235-26.509-88.366 0-160 71.633-160 160 0 32.585 9.769 62.942 26.512 88.232l-113.035 113.035c-50.399-31.404-87.153-70.176-111.519-107.021-26.457-40.004-36.62-75.055-36.62-94.246 0-14.438 5.793-38.596 21.048-67.887 14.956-28.715 38.028-60.429 69.99-89.933 63.542-58.654 162.501-108.847 303.628-108.847 73.434 0 135.317 13.589 186.658 34.748zM425.346 489.395c-5.999-12.531-9.35-26.556-9.35-41.395 0-53.022 42.982-96 96-96 14.839 0 28.868 3.349 41.395 9.348l-128.045 128.047zM512 714.666c141.129 0 240.085-50.193 303.629-108.847 31.962-29.504 55.031-61.219 69.99-89.937 15.253-29.286 21.047-53.444 21.047-67.883 0-28.975-22.822-90.193-80.806-148.006-12.518-12.48-12.548-32.738-0.068-45.257 12.48-12.514 32.738-12.544 45.257-0.064 65.297 65.109 99.618 141.666 99.618 193.327 0 28.228-10.206 62.737-28.284 97.448-18.377 35.284-45.973 72.902-83.345 107.399-75.123 69.346-189.5 125.819-347.038 125.819-49.207 0-94.305-5.51-135.395-15.269-17.195-4.084-27.823-21.334-23.739-38.528s21.333-27.823 38.528-23.74c36.079 8.57 76.207 13.537 120.605 13.537z" />
<glyph unicode="&#xe936;" glyph-name="Eye" d="M117.333 448c0 14.438 5.793 38.596 21.048 67.883 14.956 28.719 38.028 60.433 69.99 89.937 63.542 58.654 162.501 108.847 303.628 108.847s240.085-50.193 303.629-108.847c31.962-29.504 55.031-61.219 69.99-89.937 15.253-29.286 21.047-53.444 21.047-67.883s-5.794-38.596-21.047-67.883c-14.959-28.719-38.029-60.433-69.99-89.937-63.543-58.654-162.5-108.847-303.629-108.847s-240.087 50.193-303.628 108.847c-31.962 29.504-55.034 61.218-69.99 89.937-15.255 29.286-21.048 53.444-21.048 67.883zM512 778.667c-157.539 0-271.913-56.474-347.038-125.82-37.371-34.496-64.966-72.115-83.343-107.398-18.078-34.711-28.285-69.22-28.285-97.449s10.207-62.737 28.285-97.451c18.377-35.281 45.972-72.9 83.343-107.396 75.125-69.346 189.499-125.82 347.038-125.82s271.915 56.474 347.038 125.82c37.372 34.496 64.969 72.115 83.345 107.396 18.078 34.714 28.284 69.222 28.284 97.451s-10.206 62.737-28.284 97.449c-18.377 35.284-45.973 72.902-83.345 107.398-75.123 69.346-189.5 125.82-347.038 125.82zM415.996 448c0 53.018 42.982 95.999 96 95.999s96-42.982 96-95.999c0-53.022-42.982-96-96-96s-96 42.978-96 96zM511.996 607.999c-88.366 0-160-71.635-160-159.999 0-88.367 71.634-160 160-160s160 71.633 160 160c0 88.364-71.633 159.999-160 159.999z" />
<glyph unicode="&#xe937;" glyph-name="Face-ID" d="M318.864 864h22.47c17.673 0 32-14.327 32-32s-14.327-32-32-32h-21.333c-30.258 0-51.349-0.017-67.857-1.144-16.221-1.107-25.668-3.176-32.88-6.164-23.523-9.743-42.211-28.432-51.955-51.955-2.988-7.212-5.057-16.659-6.164-32.88-1.126-16.509-1.144-37.6-1.144-67.857v-21.333c0-17.673-14.327-32-32-32s-32 14.327-32 32v22.47c0 28.857 0 52.134 1.292 71.078 1.329 19.48 4.131 36.705 10.887 53.015 16.239 39.205 47.387 70.353 86.592 86.592 16.31 6.756 33.535 9.558 53.015 10.887 18.944 1.292 42.221 1.292 71.078 1.292zM771.857 798.856c-16.508 1.126-37.598 1.144-67.857 1.144h-21.333c-17.673 0-32 14.327-32 32s14.327 32 32 32h22.468c28.86 0 52.134 0 71.078-1.292 19.482-1.329 36.706-4.131 53.018-10.887 39.202-16.239 70.349-47.387 86.588-86.592 6.758-16.31 9.562-33.535 10.889-53.015 1.293-18.944 1.293-42.221 1.293-71.078v-22.47c0-17.673-14.327-32-32-32s-32 14.327-32 32v21.333c0 30.258-0.017 51.349-1.143 67.857-1.105 16.221-3.179 25.668-6.165 32.88-9.741 23.523-28.429 42.211-51.955 51.955-7.211 2.988-16.657 5.057-32.879 6.164zM128 309.333c17.673 0 32-14.327 32-32v-21.333c0-30.259 0.017-51.349 1.144-67.857 1.107-16.222 3.176-25.668 6.164-32.879 9.743-23.526 28.432-42.214 51.955-51.955 7.212-2.987 16.659-5.060 32.88-6.165 16.509-1.126 37.6-1.143 67.857-1.143h21.333c17.673 0 32-14.327 32-32s-14.327-32-32-32h-22.47c-28.856 0-52.134 0-71.078 1.293-19.48 1.327-36.705 4.13-53.015 10.889-39.205 16.239-70.353 47.386-86.592 86.588-6.756 16.311-9.558 33.536-10.887 53.018-1.292 18.944-1.292 42.219-1.292 71.078v22.468c0 17.673 14.327 32 32 32zM896 309.333c17.673 0 32-14.327 32-32v-22.468c0-28.86 0-52.134-1.293-71.078-1.327-19.482-4.13-36.706-10.889-53.018-16.239-39.202-47.386-70.349-86.588-86.588-16.311-6.758-33.536-9.562-53.018-10.889-18.944-1.293-42.219-1.293-71.078-1.293h-22.468c-17.673 0-32 14.327-32 32s14.327 32 32 32h21.333c30.259 0 51.349 0.017 67.857 1.143 16.222 1.105 25.668 3.179 32.879 6.165 23.526 9.741 42.214 28.429 51.955 51.955 2.987 7.211 5.060 16.657 6.165 32.879 1.126 16.508 1.143 37.598 1.143 67.857v21.333c0 17.673 14.327 32 32 32zM512 650.667c17.673 0 32-14.327 32-32v-170.671c0-41.233-33.429-74.662-74.662-74.662-17.673 0-32 14.327-32 32s14.327 32 32 32c5.888 0 10.662 4.774 10.662 10.662v170.671c0 17.673 14.327 32 32 32zM373.333 618.667c0 17.673-14.327 32-32 32s-32-14.327-32-32v-64c0-17.673 14.327-32 32-32s32 14.327 32 32v64zM682.667 650.667c17.673 0 32-14.327 32-32v-64c0-17.673-14.327-32-32-32s-32 14.327-32 32v64c0 17.673 14.327 32 32 32zM366.919 339.217c-10.614 14.131-30.673 16.981-44.804 6.37-14.131-10.615-16.982-30.673-6.368-44.804 44.704-59.52 115.984-98.116 196.27-98.116 80.282 0 151.561 38.596 196.267 98.116 10.615 14.131 7.765 34.189-6.366 44.804-14.131 10.611-34.193 7.761-44.804-6.37-33.139-44.113-85.794-72.55-145.097-72.55-59.307 0-111.961 28.437-145.098 72.55z" />
<glyph unicode="&#xe938;" glyph-name="Fingerprint" d="M371.993 879.507c43.278 17.519 90.556 27.15 140.007 27.15 206.187 0 373.333-167.147 373.333-373.332 0-17.677-14.327-32-32-32s-32 14.323-32 32c0 170.838-138.492 309.332-309.333 309.332-41.079 0-80.213-7.991-115.993-22.473-16.382-6.631-35.037 1.273-41.669 17.655s1.273 35.037 17.655 41.669zM265.546 771.624c13.789-11.054 16.007-31.194 4.953-44.983-42.457-52.964-67.832-120.134-67.832-193.316v-170.667c0-137.033 89.126-253.333 212.659-293.939 16.79-5.517 25.925-23.603 20.408-40.393s-23.602-25.924-40.392-20.407c-149.015 48.981-256.675 189.244-256.675 354.739v170.667c0 88.255 30.665 169.438 81.896 233.347 11.054 13.789 31.194 16.007 44.983 4.953zM853.333 394.658c17.673 0 32-14.327 32-32 0-165.495-107.661-305.758-256.674-354.739-16.789-5.517-34.876 3.618-40.393 20.407s3.618 34.876 20.407 40.393c123.533 40.606 212.659 156.907 212.659 293.939 0 17.673 14.327 32 32 32zM512 565.333c17.673 0 32-14.327 32-32v-170.667c0-17.673-14.327-32-32-32s-32 14.327-32 32v170.667c0 17.673 14.327 32 32 32zM512 736c-111.93 0-202.667-90.737-202.667-202.666v-170.667c0-17.673 14.327-32 32-32s32 14.327 32 32v170.667c0 76.583 62.084 138.666 138.667 138.666 17.673 0 32 14.327 32 32s-14.327 32-32 32zM687.535 634.69c-8.849 15.298-28.425 20.525-43.725 11.676-15.296-8.849-20.523-28.425-11.674-43.723 11.78-20.364 18.53-44 18.53-69.31v-170.667c0-76.582-62.084-138.667-138.667-138.667-25.31 0-48.947 6.75-69.312 18.53-15.296 8.849-34.871 3.622-43.721-11.674-8.849-15.3-3.622-34.876 11.676-43.725 29.843-17.263 64.497-27.132 101.356-27.132 111.932 0 202.667 90.735 202.667 202.667v170.667c0 36.861-9.869 71.514-27.132 101.356z" />
<glyph unicode="&#xe939;" glyph-name="Key" d="M875.959 854.627c12.497-12.497 12.497-32.758 0-45.255l-20.036-20.039 105.37-105.373c12.497-12.497 12.497-32.758 0-45.255l-149.333-149.332c-12.497-12.497-32.755-12.497-45.252 0l-105.374 105.371-168.034-168.036c31.795-41.37 50.701-93.167 50.701-149.376 0-135.492-109.841-245.333-245.333-245.333-135.494 0-245.333 109.841-245.333 245.333s109.839 245.333 245.333 245.333c56.211 0 108.007-18.906 149.376-50.701l339.998 339.995c0.004 0.005 0.009 0.009 0.013 0.014l42.654 42.653c12.497 12.497 32.755 12.497 45.252 0zM706.59 640l82.743-82.745 104.077 104.079-82.743 82.745-104.077-104.079zM298.667 458.667c-100.148 0-181.333-81.186-181.333-181.333s81.186-181.333 181.333-181.333c100.148 0 181.333 81.186 181.333 181.333s-81.186 181.333-181.333 181.333z" />
<glyph unicode="&#xe93a;" glyph-name="Lock---2---Opened" d="M607.74 841.642c-4.373 0.87-10.381 1.025-31.74 1.025h-64c-41.131 0-68.762-0.068-89.37-2.839-19.689-2.647-28.116-7.222-33.676-12.782s-10.135-13.987-12.782-33.676c-2.771-20.61-2.839-48.239-2.839-89.37v-54.193c27.298 0.86 58.492 0.86 94.225 0.86h88.883c58.419 0 104.708 0.001 141.675-3.76 37.871-3.852 69.487-11.916 97.148-30.396 22.127-14.786 41.126-33.786 55.915-55.916 18.479-27.659 26.543-59.275 30.396-97.146 3.759-36.966 3.759-83.255 3.759-141.675v-3.55c0-58.419 0-104.708-3.759-141.675-3.853-37.871-11.917-69.487-30.396-97.148-14.788-22.127-33.788-41.126-55.915-55.915-27.661-18.479-59.277-26.543-97.148-30.396-36.966-3.759-83.255-3.759-141.675-3.759h-88.883c-58.419 0-104.708 0-141.673 3.759-37.873 3.853-69.49 11.917-97.148 30.396-22.129 14.788-41.129 33.788-55.916 55.915-18.48 27.661-26.543 59.277-30.396 97.148-3.761 36.966-3.76 83.255-3.76 141.675v3.55c0 58.419-0.001 104.708 3.76 141.675 3.852 37.871 11.916 69.487 30.396 97.146 14.786 22.129 33.786 41.129 55.916 55.916 23.528 15.721 49.923 23.904 80.596 28.368v61.339c-0.001 38.335-0.003 70.302 3.409 95.679 3.601 26.786 11.523 50.969 30.957 70.403s43.617 27.355 70.403 30.957c25.377 3.412 57.343 3.411 95.679 3.409l69.346 0.001c16.755 0.009 29.683 0.015 41.097-2.255 46.545-9.258 82.931-45.643 92.19-92.188 2.27-11.413 2.261-24.341 2.253-41.097v-24.46c0-17.673-14.327-32-32-32s-32 14.327-32 32v21.333c0 21.359-0.154 27.366-1.024 31.738-4.211 21.157-20.749 37.696-41.903 41.904zM332.363 583.236c-32.812-3.338-52.68-9.656-68.068-19.939-15.141-10.117-28.141-23.117-38.258-38.258-10.282-15.39-16.6-35.255-19.939-68.070-3.392-33.344-3.431-76.378-3.431-136.969s0.039-103.625 3.431-136.969c3.338-32.815 9.656-52.681 19.939-68.070 10.117-15.142 23.117-28.143 38.258-38.259 15.389-10.283 35.256-16.602 68.068-19.938 33.347-3.392 76.381-3.43 136.971-3.43h85.333c60.591 0 103.625 0.038 136.969 3.43 32.815 3.337 52.681 9.655 68.070 19.938 15.142 10.116 28.143 23.117 38.259 38.259 10.283 15.39 16.602 35.255 19.938 68.070 3.392 33.344 3.43 76.378 3.43 136.969s-0.038 103.625-3.43 136.969c-3.337 32.815-9.655 52.681-19.938 68.070-10.116 15.141-23.117 28.141-38.259 38.258-15.39 10.282-35.255 16.6-68.070 19.939-33.344 3.392-76.378 3.431-136.969 3.431h-85.333c-60.59 0-103.623-0.039-136.971-3.431zM544 362.667c0 17.673-14.327 32-32 32s-32-14.327-32-32v-85.333c0-17.673 14.327-32 32-32s32 14.327 32 32v85.333z" />
<glyph unicode="&#xe93b;" glyph-name="Lock---2---Slash" d="M512 842.667c41.131 0 68.762-0.068 89.37-2.839 19.691-2.647 28.117-7.222 33.677-12.782s10.133-13.987 12.783-33.676c2.769-20.61 2.837-48.239 2.837-89.37v-54.688c-33.033 1.355-71.189 1.355-115.247 1.355h-23.42c-17.673 0-32-14.327-32-32s14.327-32 32-32h21.333c70.916 0 121.293-0.052 159.945-4.621 37.943-4.486 60.403-12.94 77.359-26.855 7.019-5.762 13.457-12.2 19.221-19.221 13.914-16.955 22.37-39.415 26.854-77.358 4.57-38.652 4.621-89.028 4.621-159.945v-21.333c0-17.673 14.327-32 32-32s32 14.327 32 32v23.424c0 68.361 0 122.522-5.065 165.363-5.197 43.989-16.115 80.201-40.939 110.45-8.422 10.262-17.83 19.671-28.092 28.093-27.008 22.164-58.769 33.24-96.572 39.060v62.496c0 38.334 0.004 70.301-3.409 95.678-3.601 26.786-11.524 50.969-30.959 70.403-19.43 19.433-43.614 27.355-70.4 30.957-25.378 3.412-57.344 3.411-95.68 3.409h-108.885c-53.019 0-96-42.981-96-96v-21.333c0-17.673 14.327-32 32-32s32 14.327 32 32v21.333c0 17.673 14.327 32 32 32h106.667zM150.627 854.627c-12.497 12.497-32.758 12.497-45.255 0s-12.497-32.758 0-45.255l169.763-169.763c-79.424-27.435-136.469-102.86-136.469-191.609v-129.775c0-58.419-0.001-104.708 3.76-141.675 3.852-37.871 11.916-69.487 30.396-97.148 14.786-22.127 33.786-41.126 55.916-55.915 27.657-18.479 59.275-26.543 97.148-30.396 36.965-3.759 83.255-3.759 141.673-3.759h184.465c44.715-0.009 73.549-0.017 100.838 7.765 14.963 4.262 29.385 10.236 42.978 17.801 19.358 10.769 36.023 25.557 57.438 46.566l62.763-62.758c12.497-12.497 32.755-12.497 45.252 0s12.497 32.755 0 45.252l-810.665 810.668zM202.667 448c0 72.307 55.345 131.689 125.984 138.095l479.345-479.347c-20.237-19.81-31.138-29.171-43.273-35.921-9.301-5.175-19.166-9.263-29.402-12.181-17.638-5.026-36.971-5.312-88-5.312h-177.988c-60.59 0-103.623 0.038-136.971 3.43-32.812 3.337-52.68 9.655-68.068 19.938-15.141 10.116-28.141 23.117-38.258 38.259-10.282 15.39-16.6 35.255-19.939 68.070-3.392 33.344-3.431 76.378-3.431 136.969v128z" />
<glyph unicode="&#xe93c;" glyph-name="Lock---2" d="M509.781 906.667h4.437c38.336 0.001 70.302 0.003 95.68-3.409 26.786-3.601 50.97-11.523 70.4-30.957 19.435-19.433 27.358-43.617 30.959-70.403 3.413-25.377 3.409-57.344 3.409-95.678v-61.341c30.673-4.465 57.067-12.647 80.597-28.368 22.127-14.786 41.126-33.786 55.915-55.916 18.479-27.659 26.543-59.275 30.396-97.146 3.759-36.966 3.759-83.255 3.759-141.675v-3.55c0-58.419 0-104.708-3.759-141.675-3.853-37.871-11.917-69.487-30.396-97.148-14.788-22.127-33.788-41.126-55.915-55.915-27.661-18.479-59.277-26.543-97.148-30.396-36.966-3.759-83.255-3.759-141.675-3.759h-88.883c-58.419 0-104.708 0-141.673 3.759-37.873 3.853-69.49 11.917-97.148 30.396-22.129 14.788-41.129 33.788-55.916 55.915-18.48 27.661-26.543 59.277-30.396 97.148-3.761 36.966-3.76 83.255-3.76 141.675v3.55c0 58.419-0.001 104.708 3.76 141.675 3.852 37.871 11.916 69.487 30.396 97.146 14.786 22.129 33.786 41.129 55.916 55.916 23.528 15.721 49.923 23.904 80.596 28.368v61.339c-0.001 38.335-0.003 70.302 3.409 95.679 3.601 26.786 11.523 50.969 30.957 70.403s43.617 27.355 70.403 30.957c25.377 3.412 57.343 3.411 95.679 3.409zM650.667 704v-54.193c-27.298 0.86-58.492 0.86-94.225 0.86h-88.883c-35.733 0-66.927 0-94.225-0.86v54.193c0 41.131 0.068 68.76 2.839 89.37 2.647 19.689 7.222 28.116 12.782 33.676s13.987 10.135 33.676 12.782c20.608 2.771 48.239 2.839 89.37 2.839s68.762-0.068 89.37-2.839c19.691-2.647 28.117-7.222 33.677-12.782s10.133-13.987 12.783-33.676c2.769-20.61 2.837-48.239 2.837-89.37zM332.363 583.236c-32.812-3.338-52.68-9.656-68.068-19.939-15.141-10.117-28.141-23.117-38.258-38.258-10.282-15.39-16.6-35.255-19.939-68.070-3.392-33.344-3.431-76.378-3.431-136.969s0.039-103.625 3.431-136.969c3.338-32.815 9.656-52.681 19.939-68.070 10.117-15.142 23.117-28.143 38.258-38.259 15.389-10.283 35.256-16.602 68.068-19.938 33.347-3.392 76.381-3.43 136.971-3.43h85.333c60.591 0 103.625 0.038 136.969 3.43 32.815 3.337 52.681 9.655 68.070 19.938 15.142 10.116 28.143 23.117 38.259 38.259 10.283 15.39 16.602 35.255 19.938 68.070 3.392 33.344 3.43 76.378 3.43 136.969s-0.038 103.625-3.43 136.969c-3.337 32.815-9.655 52.681-19.938 68.070-10.116 15.141-23.117 28.141-38.259 38.258-15.39 10.282-35.255 16.6-68.070 19.939-33.344 3.392-76.378 3.431-136.969 3.431h-85.333c-60.59 0-103.623-0.039-136.971-3.431zM544 362.667c0 17.673-14.327 32-32 32s-32-14.327-32-32v-85.333c0-17.673 14.327-32 32-32s32 14.327 32 32v85.333z" />
<glyph unicode="&#xe93d;" glyph-name="Lock---Opened" d="M510.921 906.667h2.159c18.961 0 34.795 0 47.791-0.886 13.53-0.923 26.308-2.913 38.699-8.045 28.749-11.909 51.593-34.75 63.501-63.5 5.133-12.39 7.121-25.17 8.043-38.7 0.887-12.997 0.887-28.827 0.887-47.791v-22.411c0-17.673-14.327-32-32-32s-32 14.327-32 32v21.333c0 20.318-0.017 33.954-0.738 44.512-0.7 10.271-1.958 15.272-3.319 18.564-5.414 13.068-15.799 23.451-28.864 28.864-3.294 1.364-8.294 2.621-18.564 3.322-10.56 0.72-24.196 0.738-44.514 0.738s-33.954-0.017-44.514-0.738c-10.27-0.701-15.27-1.958-18.564-3.322-13.065-5.413-23.449-15.796-28.862-28.864-1.364-3.292-2.621-8.293-3.322-18.564-0.72-10.559-0.738-24.195-0.738-44.512v-110.151c30.383 9.203 62.613 14.151 96 14.151 182.622 0 330.667-148.045 330.667-330.667s-148.045-330.667-330.667-330.667c-182.622 0-330.667 148.045-330.667 330.667 0 124.582 68.896 233.073 170.667 289.449v138.295c0 18.964 0 34.795 0.886 47.791 0.923 13.53 2.913 26.31 8.045 38.7 11.909 28.75 34.75 51.592 63.5 63.5 12.39 5.132 25.168 7.122 38.698 8.045 12.996 0.887 28.83 0.887 47.791 0.886zM512 586.667c-147.276 0-266.667-119.39-266.667-266.667s119.391-266.667 266.667-266.667c147.277 0 266.667 119.39 266.667 266.667s-119.39 266.667-266.667 266.667zM544 362.667c0 17.673-14.327 32-32 32s-32-14.327-32-32v-85.333c0-17.673 14.327-32 32-32s32 14.327 32 32v85.333z" />
<glyph unicode="&#xe93e;" glyph-name="Lock---Slash" d="M490.667 906.665l-3.127 0.001c-16.755 0.008-29.683 0.015-41.097-2.256-46.545-9.258-82.93-45.643-92.188-92.188-2.27-11.413-2.264-24.341-2.255-41.097l0.001-3.127v-21.333c0-17.673 14.327-32 32-32s32 14.327 32 32v21.333c0 21.359 0.155 27.366 1.025 31.738 4.208 21.157 20.748 37.695 41.902 41.903 4.373 0.87 10.381 1.025 31.74 1.025h21.333c20.318 0 33.954-0.017 44.514-0.738 10.27-0.701 15.27-1.958 18.564-3.322 13.065-5.413 23.45-15.796 28.864-28.864 1.361-3.292 2.62-8.293 3.319-18.564 0.721-10.558 0.738-24.194 0.738-44.512v-110.151c-30.383 9.203-62.613 14.151-96 14.151-17.673 0-32-14.327-32-32s14.327-32 32-32c147.277 0 266.667-119.392 266.667-266.665 0-17.677 14.327-32 32-32s32 14.323 32 32c0 124.578-68.898 233.071-170.667 289.447v138.295c0 18.964 0 34.795-0.887 47.791-0.922 13.53-2.91 26.309-8.043 38.699-11.908 28.75-34.752 51.592-63.501 63.5-12.39 5.132-25.169 7.122-38.699 8.045-12.996 0.887-28.83 0.887-47.791 0.886h-22.413zM150.627 854.625c-12.497 12.497-32.758 12.497-45.255 0s-12.497-32.758 0-45.255l217.855-217.855c-85.722-59.709-141.894-159.033-141.894-271.515 0-182.626 148.044-330.667 330.667-330.667 112.486 0 211.81 56.171 271.518 141.892l132.523-132.523c12.497-12.497 32.755-12.497 45.252 0s12.497 32.759 0 45.257l-810.665 810.666zM245.333 320c0 94.775 49.436 178.048 124.044 225.366l367.992-367.992c-47.317-74.607-130.594-124.041-225.37-124.041-147.276 0-266.667 119.39-266.667 266.667z" />
<glyph unicode="&#xe93f;" glyph-name="Lock" d="M510.921 906.667h2.159c18.961 0 34.795 0 47.791-0.886 13.53-0.923 26.308-2.913 38.699-8.045 28.749-11.909 51.593-34.75 63.501-63.5 5.133-12.39 7.121-25.17 8.043-38.7 0.887-12.997 0.887-28.827 0.887-47.791v-138.295c101.769-56.376 170.667-164.867 170.667-289.449 0-182.622-148.045-330.667-330.667-330.667s-330.667 148.045-330.667 330.667c0 124.582 68.896 233.073 170.667 289.449v138.295c0 18.964 0 34.795 0.886 47.791 0.923 13.53 2.913 26.31 8.045 38.7 11.909 28.75 34.75 51.592 63.5 63.5 12.39 5.132 25.168 7.122 38.698 8.045 12.996 0.887 28.83 0.887 47.791 0.886zM608 746.667v-110.151c-30.383 9.203-62.613 14.151-96 14.151s-65.617-4.948-96-14.151v110.151c0 20.318 0.017 33.954 0.738 44.512 0.701 10.271 1.958 15.272 3.322 18.564 5.413 13.068 15.797 23.451 28.862 28.864 3.294 1.364 8.294 2.621 18.564 3.322 10.56 0.72 24.196 0.738 44.514 0.738s33.954-0.017 44.514-0.738c10.27-0.701 15.27-1.958 18.564-3.322 13.065-5.413 23.45-15.796 28.864-28.864 1.361-3.292 2.62-8.293 3.319-18.564 0.721-10.559 0.738-24.195 0.738-44.512zM512 586.667c-147.276 0-266.667-119.39-266.667-266.667s119.391-266.667 266.667-266.667c147.277 0 266.667 119.39 266.667 266.667s-119.39 266.667-266.667 266.667zM544 362.667c0 17.673-14.327 32-32 32s-32-14.327-32-32v-85.333c0-17.673 14.327-32 32-32s32 14.327 32 32v85.333z" />
<glyph unicode="&#xe940;" glyph-name="Scan" d="M320 864h-1.136c-28.857 0-52.134 0-71.078-1.292-19.48-1.329-36.705-4.131-53.015-10.887-39.205-16.239-70.353-47.387-86.592-86.592-6.756-16.31-9.558-33.535-10.887-53.015-1.292-18.944-1.292-42.221-1.292-71.078v-22.47c0-17.673 14.327-32 32-32s32 14.327 32 32v21.333c0 30.258 0.017 51.349 1.144 67.857 1.107 16.221 3.176 25.668 6.164 32.88 9.743 23.523 28.432 42.211 51.955 51.955 7.212 2.988 16.659 5.057 32.88 6.164 16.509 1.126 37.6 1.144 67.857 1.144h21.333c17.673 0 32 14.327 32 32s-14.327 32-32 32h-21.333zM704 800c30.259 0 51.349-0.017 67.857-1.144 16.222-1.107 25.668-3.176 32.879-6.164 23.526-9.743 42.214-28.432 51.955-51.955 2.987-7.212 5.060-16.659 6.165-32.88 1.126-16.509 1.143-37.6 1.143-67.857v-21.333c0-17.673 14.327-32 32-32s32 14.327 32 32v22.47c0 28.856 0 52.134-1.293 71.078-1.327 19.48-4.13 36.705-10.889 53.015-16.239 39.205-47.386 70.353-86.588 86.592-16.311 6.756-33.536 9.558-53.018 10.887-18.944 1.292-42.219 1.292-71.078 1.292h-22.468c-17.673 0-32-14.327-32-32s14.327-32 32-32h21.333zM160 277.333c0 17.673-14.327 32-32 32s-32-14.327-32-32v-22.468c0-28.86 0-52.134 1.292-71.078 1.329-19.482 4.131-36.706 10.887-53.018 16.239-39.202 47.387-70.349 86.592-86.588 16.31-6.758 33.535-9.562 53.015-10.889 18.944-1.293 42.221-1.293 71.078-1.293h22.47c17.673 0 32 14.327 32 32s-14.327 32-32 32h-21.333c-30.258 0-51.349 0.017-67.857 1.143-16.221 1.105-25.668 3.179-32.88 6.165-23.523 9.741-42.211 28.429-51.955 51.955-2.988 7.211-5.057 16.657-6.164 32.879-1.126 16.508-1.144 37.598-1.144 67.857v21.333zM928 277.333c0 17.673-14.327 32-32 32s-32-14.327-32-32v-21.333c0-30.259-0.017-51.349-1.143-67.857-1.105-16.222-3.179-25.668-6.165-32.879-9.741-23.526-28.429-42.214-51.955-51.955-7.211-2.987-16.657-5.060-32.879-6.165-16.508-1.126-37.598-1.143-67.857-1.143h-21.333c-17.673 0-32-14.327-32-32s14.327-32 32-32h22.468c28.86 0 52.134 0 71.078 1.293 19.482 1.327 36.706 4.13 53.018 10.889 39.202 16.239 70.349 47.386 86.588 86.588 6.758 16.311 9.562 33.536 10.889 53.018 1.293 18.944 1.293 42.219 1.293 71.078v22.468zM85.333 480c-17.673 0-32-14.327-32-32s14.327-32 32-32h853.333c17.673 0 32 14.327 32 32s-14.327 32-32 32h-853.333z" />
<glyph unicode="&#xe941;" glyph-name="Server---2" d="M202.667 704c0 5.235 2.715 14.054 16.052 25.879 13.3 11.792 34.372 23.874 63.158 34.668 57.334 21.501 138.688 35.453 230.123 35.453s172.787-13.952 230.123-35.453c28.787-10.794 49.856-22.876 63.159-34.668 13.338-11.825 16.051-20.644 16.051-25.879s-2.714-14.054-16.051-25.879c-13.303-11.792-34.372-23.874-63.159-34.668-57.335-21.501-138.688-35.453-230.123-35.453s-172.789 13.952-230.123 35.453c-28.785 10.794-49.857 22.876-63.158 34.668-13.338 11.825-16.052 20.644-16.052 25.879zM821.333 610.774v-162.774c0-5.235-2.714-14.054-16.051-25.877-13.303-11.793-34.372-23.876-63.159-34.671-57.335-21.5-138.688-35.452-230.123-35.452s-172.789 13.952-230.123 35.452c-28.785 10.795-49.857 22.878-63.158 34.671-13.338 11.823-16.052 20.642-16.052 25.877v162.774c16.683-10.366 35.898-19.431 56.738-27.246 66.204-24.826 155.517-39.528 252.595-39.528s186.389 14.701 252.595 39.528c20.838 7.815 40.055 16.88 56.738 27.246zM885.333 448v256c0 30.111-16.388 54.965-37.594 73.768-21.244 18.835-50.159 34.336-83.145 46.705-66.206 24.826-155.516 39.528-252.595 39.528-97.078 0-186.391-14.701-252.595-39.528-32.984-12.369-61.899-27.869-83.144-46.705-21.207-18.802-37.594-43.657-37.594-73.768v-512c0-30.11 16.387-54.967 37.594-73.766 21.245-18.837 50.16-34.338 83.144-46.707 66.204-24.823 155.517-39.526 252.595-39.526s186.389 14.703 252.595 39.526c32.986 12.369 61.901 27.87 83.145 46.707 21.205 18.799 37.594 43.657 37.594 73.766v256zM821.333 354.773v-162.773c0-5.235-2.714-14.054-16.051-25.877-13.303-11.793-34.372-23.876-63.159-34.671-57.335-21.5-138.688-35.452-230.123-35.452s-172.789 13.952-230.123 35.452c-28.785 10.795-49.857 22.878-63.158 34.671-13.338 11.823-16.052 20.642-16.052 25.877v162.773c16.683-10.364 35.898-19.43 56.738-27.247 66.204-24.823 155.517-39.526 252.595-39.526s186.389 14.703 252.595 39.526c20.838 7.817 40.055 16.883 56.738 27.247z" />
<glyph unicode="&#xe942;" glyph-name="Server" d="M256 864h-1.078c-18.964 0-34.794 0-47.791-0.886-13.53-0.923-26.31-2.913-38.7-8.045-28.75-11.909-51.592-34.75-63.5-63.5-5.132-12.39-7.122-25.17-8.045-38.7-0.887-12.997-0.887-28.828-0.886-47.791v-2.155c0-18.964 0-34.795 0.886-47.792 0.923-13.53 2.913-26.309 8.045-38.699 6.396-15.441 15.945-29.178 27.87-40.432-11.925-11.254-21.475-24.991-27.87-40.432-5.132-12.39-7.122-25.168-8.045-38.698-0.887-12.996-0.887-28.83-0.886-47.791v-2.159c0-18.961 0-34.795 0.886-47.791 0.923-13.53 2.913-26.308 8.045-38.699 6.396-15.441 15.945-29.175 27.87-40.431-11.925-11.255-21.474-24.99-27.87-40.431-5.132-12.39-7.122-25.169-8.045-38.699-0.887-12.996-0.887-28.83-0.886-47.795v-2.155c0-18.961 0-34.795 0.886-47.791 0.923-13.53 2.913-26.308 8.045-38.699 11.909-28.749 34.75-51.593 63.5-63.501 12.39-5.133 25.17-7.121 38.7-8.043 12.996-0.887 28.826-0.887 47.788-0.887h514.161c18.965 0 34.795 0 47.791 0.887 13.53 0.922 26.308 2.91 38.699 8.043 28.749 11.908 51.593 34.752 63.501 63.501 5.133 12.39 7.121 25.169 8.043 38.699 0.887 12.996 0.887 28.83 0.887 47.791v2.159c0 18.961 0 34.795-0.887 47.791-0.922 13.53-2.91 26.308-8.043 38.699-6.396 15.441-15.949 29.175-27.87 40.431 11.921 11.255 21.474 24.99 27.87 40.431 5.133 12.39 7.121 25.169 8.043 38.699 0.887 12.996 0.887 28.83 0.887 47.791v2.159c0 18.961 0 34.795-0.887 47.791-0.922 13.53-2.91 26.308-8.043 38.698-6.396 15.441-15.949 29.178-27.87 40.432 11.921 11.254 21.474 24.991 27.87 40.432 5.133 12.39 7.121 25.169 8.043 38.699 0.887 12.997 0.887 28.828 0.887 47.791v2.156c0 18.964 0 34.794-0.887 47.791-0.922 13.53-2.91 26.31-8.043 38.7-11.908 28.75-34.752 51.592-63.501 63.5-12.39 5.132-25.169 7.122-38.699 8.045-12.996 0.887-28.83 0.887-47.791 0.886v0h-513.079zM768 352h-512c-20.318 0-33.954 0.017-44.512 0.738-10.271 0.7-15.272 1.958-18.564 3.319-13.068 5.414-23.451 15.799-28.864 28.864-1.364 3.294-2.621 8.294-3.322 18.564-0.72 10.56-0.738 24.196-0.738 44.514s0.017 33.954 0.738 44.514c0.701 10.27 1.958 15.27 3.322 18.564 5.413 13.065 15.796 23.449 28.864 28.862 3.292 1.364 8.293 2.621 18.564 3.322 10.559 0.72 24.195 0.738 44.512 0.738h512c20.318 0 33.954-0.017 44.514-0.738 10.27-0.701 15.27-1.958 18.564-3.322 13.065-5.413 23.45-15.797 28.864-28.862 1.361-3.294 2.62-8.294 3.319-18.564 0.721-10.56 0.738-24.196 0.738-44.514s-0.017-33.954-0.738-44.514c-0.7-10.27-1.958-15.27-3.319-18.564-5.414-13.065-15.799-23.45-28.864-28.864-3.294-1.361-8.294-2.62-18.564-3.319-10.56-0.721-24.196-0.738-44.514-0.738zM256 288h512c20.318 0 33.954-0.017 44.514-0.738 10.27-0.7 15.27-1.958 18.564-3.324 13.065-5.41 23.45-15.795 28.864-28.86 1.361-3.294 2.62-8.294 3.319-18.564 0.721-10.56 0.738-24.196 0.738-44.514s-0.017-33.954-0.738-44.514c-0.7-10.27-1.958-15.27-3.319-18.564-5.414-13.065-15.799-23.45-28.864-28.864-3.294-1.361-8.294-2.62-18.564-3.319-10.56-0.721-24.196-0.738-44.514-0.738h-512c-20.318 0-33.954 0.017-44.512 0.738-10.271 0.7-15.272 1.958-18.564 3.319-13.068 5.414-23.451 15.799-28.864 28.864-1.364 3.294-2.621 8.294-3.322 18.564-0.72 10.56-0.738 24.196-0.738 44.514s0.017 33.954 0.738 44.514c0.701 10.27 1.958 15.27 3.322 18.564 5.413 13.065 15.796 23.45 28.864 28.86 3.292 1.365 8.293 2.624 18.564 3.324 10.559 0.721 24.195 0.738 44.512 0.738zM256 608c-20.318 0-33.954 0.017-44.512 0.738-10.271 0.701-15.272 1.958-18.564 3.322-13.068 5.413-23.451 15.796-28.864 28.864-1.364 3.292-2.621 8.293-3.322 18.564-0.72 10.559-0.738 24.195-0.738 44.512s0.017 33.954 0.738 44.512c0.701 10.271 1.958 15.272 3.322 18.564 5.413 13.068 15.796 23.451 28.864 28.864 3.292 1.364 8.293 2.621 18.564 3.322 10.559 0.72 24.195 0.738 44.512 0.738h512c20.318 0 33.954-0.017 44.514-0.738 10.27-0.701 15.27-1.958 18.564-3.322 13.065-5.413 23.45-15.796 28.864-28.864 1.361-3.292 2.62-8.293 3.319-18.564 0.721-10.559 0.738-24.195 0.738-44.512s-0.017-33.954-0.738-44.512c-0.7-10.271-1.958-15.272-3.319-18.564-5.414-13.068-15.799-23.451-28.864-28.864-3.294-1.364-8.294-2.621-18.564-3.322-10.56-0.72-24.196-0.738-44.514-0.738h-512zM725.333 661.333c23.565 0 42.667 19.103 42.667 42.667s-19.102 42.667-42.667 42.667c-23.565 0-42.667-19.103-42.667-42.667s19.102-42.667 42.667-42.667zM768 448c0-23.565-19.102-42.667-42.667-42.667s-42.667 19.102-42.667 42.667c0 23.565 19.102 42.667 42.667 42.667s42.667-19.102 42.667-42.667zM725.333 149.333c23.565 0 42.667 19.102 42.667 42.667s-19.102 42.667-42.667 42.667c-23.565 0-42.667-19.102-42.667-42.667s19.102-42.667 42.667-42.667z" />
<glyph unicode="&#xe943;" glyph-name="Shield---Check" d="M403.387 799.761c61.462 23.049 84.813 31.301 108.613 31.301 23.804 0 47.151-8.252 108.612-31.301l37.069-13.9c73.63-27.61 101.35-38.667 120.713-57.14 13.611-12.989 24.439-28.614 31.821-45.921 10.5-24.615 11.119-54.453 11.119-133.088v-57.653c0-67.511-0.124-97.19-5.137-124.339-12.215-66.21-45.7-126.626-95.373-172.079-20.365-18.637-45.466-34.47-102.716-70.255-32.666-20.412-45.218-28.079-57.621-32.704-31.27-11.674-65.702-11.674-96.973 0-12.399 4.625-24.956 12.292-57.619 32.704-57.251 35.785-82.351 51.618-102.718 70.255-49.671 45.453-83.157 105.869-95.374 172.079-5.009 27.149-5.135 56.828-5.135 124.339v57.653c0 78.636 0.619 108.474 11.118 133.088 7.382 17.308 18.21 32.932 31.824 45.921 19.361 18.473 47.082 29.53 120.711 57.14l37.068 13.9zM386.555 861.802v0l-49.694-18.635c-64.133-24.028-105.403-39.49-135.433-68.143-19.897-18.985-35.722-41.82-46.511-67.116-16.285-38.178-16.271-82.249-16.251-150.735l0.001-7.462v-61.382c-0.003-62.75-0.004-98.611 6.198-132.224 14.745-79.906 55.159-152.823 115.107-207.68 25.214-23.070 55.627-42.078 108.837-75.332l6.249-3.904c28.536-17.843 46.854-29.295 66.081-36.471 45.7-17.054 96.021-17.054 141.726 0 19.226 7.177 37.542 18.628 66.078 36.471l6.251 3.904c53.21 33.254 83.622 52.262 108.834 75.332 59.951 54.857 100.365 127.774 115.106 207.68 6.204 33.609 6.204 69.474 6.199 132.215v68.853c0.021 68.486 0.034 112.557-16.247 150.735-10.79 25.296-26.615 48.131-46.511 67.116-30.033 28.653-71.3 44.115-135.433 68.143l-49.698 18.635c-53.828 20.203-88.619 33.26-125.444 33.26-36.821 0-71.616-13.057-125.445-33.26zM683.959 532.036c12.497 12.498 12.497 32.76 0 45.257s-32.755 12.497-45.252 0l-169.374-169.374-62.706 62.707c-12.497 12.497-32.758 12.497-45.255 0s-12.497-32.759 0-45.257l85.335-85.333c12.497-12.497 32.755-12.497 45.252 0l192 192z" />
<glyph unicode="&#xe944;" glyph-name="Shield---Cross" d="M62.706 897.294c12.497 12.497 32.758 12.497 45.255 0l810.665-810.668c12.497-12.497 12.497-32.755 0-45.252s-32.755-12.497-45.252 0l-103.437 103.437-107.221-67.012c-1.382-0.866-2.743-1.719-4.092-2.56-37.914-23.706-62.272-38.938-88.444-46.78-37.952-11.375-78.409-11.375-116.361 0-26.172 7.842-50.531 23.074-88.442 46.78-1.347 0.841-2.712 1.694-4.094 2.56l-4.113 2.569c-61.443 38.396-97.204 60.745-125.247 89.668-40.716 42.001-69.563 94.046-83.598 150.831-9.666 39.113-9.663 81.28-9.658 153.737 0 1.6 0 3.217 0 4.851v234.074c0 17.355 5.615 33.76 15.408 47.142l-91.369 91.369c-12.497 12.497-12.497 32.758 0 45.255zM202.667 712.079v-232.625c0-78.707 0.221-112.61 7.789-143.232 11.318-45.794 34.582-87.77 67.417-121.638 21.956-22.643 50.586-40.802 117.33-82.513 43.419-27.14 60.106-37.248 76.989-42.308 25.967-7.782 53.649-7.782 79.616 0 16.883 5.060 33.57 15.168 76.988 42.308l94.694 59.183-520.823 520.825zM512 831.061c-23.799 0-47.151-8.252-108.613-31.3l-50.818-19.056c-16.548-6.205-34.993 2.179-41.199 18.726s2.179 34.993 18.727 41.199l50.817 19.057c1.903 0.713 3.782 1.419 5.639 2.115 53.83 20.203 88.62 33.26 125.446 33.26s71.616-13.057 125.444-33.26c1.86-0.697 3.738-1.402 5.641-2.115l1.766-0.663c52.070-19.525 93.632-35.111 125.807-51.445 33.254-16.882 59.277-35.885 78.583-63.745v0c19.311-27.86 27.964-58.899 32.094-95.963 3.998-35.862 3.998-80.253 3.998-135.862v-192.009c0-17.673-14.327-32-32-32s-32 14.327-32 32v190.123c0 57.926-0.047 98.752-3.601 130.659-3.469 31.109-10.010 50.603-21.090 66.598-11.085 15.995-27.042 28.963-54.955 43.132-28.625 14.533-66.837 28.911-121.075 49.25-61.461 23.048-84.813 31.3-108.612 31.3z" />
</font>
</defs>
</svg>
